<?xml version="1.0" encoding="utf-8"?>
<!-- Generator: Adobe Illustrator 16.0.0, SVG Export Plug-In . SVG Version: 6.00 Build 0)  -->
<!DOCTYPE svg PUBLIC "-//W3C//DTD SVG 1.1//EN" "http://www.w3.org/Graphics/SVG/1.1/DTD/svg11.dtd">
<svg version="1.1" id="Layer_1" xmlns="http://www.w3.org/2000/svg" xmlns:xlink="http://www.w3.org/1999/xlink" x="0px" y="0px"
	 width="1280px" height="800px" viewBox="0 0 1280 800" enable-background="new 0 0 1280 800" xml:space="preserve">
<g id="XMLID_834_">
	<path id="XMLID_835_" fill="#FFFFFF" d="M524.435,310.014h16.875v69.471c0,1.372,1.111,2.483,2.483,2.483h28.612
		c1.372,0,2.483-1.111,2.483-2.483v-69.144h19.399c1.261,0,2.322-0.947,2.466-2.2l2.946-25.575c0.081-0.704-0.142-1.409-0.613-1.937
		c-0.471-0.528-1.146-0.831-1.853-0.831h-22.345v-16.032c0-4.833,2.602-7.284,7.735-7.284c0.731,0,14.61,0,14.61,0
		c1.372,0,2.483-1.112,2.483-2.483v-23.476c0-1.372-1.112-2.483-2.483-2.483h-20.135c-0.142-0.007-0.457-0.018-0.922-0.018
		c-3.494,0-15.636,0.686-25.229,9.51c-10.628,9.779-9.15,21.488-8.797,23.518v18.748h-17.715c-1.372,0-2.483,1.111-2.483,2.483
		v25.249C521.952,308.902,523.063,310.014,524.435,310.014z"/>
</g>
</svg>
