<?xml version="1.0" encoding="utf-8"?>
<!-- Generator: Adobe Illustrator 16.0.0, SVG Export Plug-In . SVG Version: 6.00 Build 0)  -->
<!DOCTYPE svg PUBLIC "-//W3C//DTD SVG 1.1//EN" "http://www.w3.org/Graphics/SVG/1.1/DTD/svg11.dtd">
<svg version="1.1" id="Layer_1" xmlns="http://www.w3.org/2000/svg" xmlns:xlink="http://www.w3.org/1999/xlink" x="0px" y="0px"
	 width="511px" height="511px" viewBox="0 0 511 511" enable-background="new 0 0 511 511" xml:space="preserve">
<path fill="#FFFFFF" d="M349.627,213.889c-0.473-10.733-2.209-18.112-4.695-24.505c-2.564-6.787-6.511-12.863-11.681-17.915
	c-5.052-5.129-11.167-9.116-17.876-11.641c-6.431-2.486-13.771-4.222-24.504-4.695c-10.813-0.513-14.246-0.632-41.671-0.632
	c-27.425,0-30.858,0.119-41.631,0.592c-10.733,0.473-18.112,2.21-24.504,4.695c-6.789,2.565-12.865,6.511-17.916,11.681
	c-5.13,5.052-9.115,11.168-11.641,17.876c-2.486,6.433-4.222,13.771-4.695,24.504c-0.514,10.813-0.632,14.246-0.632,41.671
	s0.119,30.858,0.592,41.63c0.474,10.733,2.21,18.113,4.697,24.506c2.565,6.787,6.55,12.863,11.68,17.915
	c5.051,5.13,11.167,9.116,17.875,11.642c6.433,2.485,13.771,4.221,24.506,4.694c10.771,0.475,14.206,0.592,41.631,0.592
	c27.426,0,30.858-0.117,41.631-0.592c10.733-0.474,18.112-2.209,24.505-4.694c13.575-5.25,24.309-15.982,29.557-29.557
	c2.484-6.432,4.222-13.772,4.695-24.506c0.473-10.772,0.592-14.205,0.592-41.63S350.101,224.662,349.627,213.889z M331.437,296.361
	c-0.435,9.865-2.091,15.193-3.473,18.744c-3.395,8.801-10.378,15.784-19.179,19.179c-3.551,1.381-8.917,3.038-18.744,3.472
	c-10.654,0.475-13.85,0.592-40.801,0.592s-30.187-0.117-40.803-0.592c-9.865-0.434-15.192-2.091-18.744-3.472
	c-4.379-1.618-8.365-4.184-11.601-7.538c-3.354-3.275-5.919-7.221-7.538-11.601c-1.381-3.552-3.038-8.919-3.471-18.743
	c-0.475-10.654-0.592-13.852-0.592-40.804c0-26.952,0.117-30.188,0.592-40.802c0.433-9.865,2.09-15.192,3.471-18.744
	c1.618-4.38,4.184-8.365,7.578-11.602c3.274-3.354,7.22-5.919,11.601-7.536c3.552-1.381,8.919-3.038,18.744-3.473
	c10.655-0.473,13.852-0.592,40.802-0.592c26.992,0,30.188,0.119,40.804,0.592c9.865,0.435,15.191,2.092,18.743,3.473
	c4.38,1.617,8.366,4.182,11.601,7.536c3.354,3.275,5.92,7.222,7.538,11.602c1.382,3.551,3.038,8.917,3.473,18.744
	c0.474,10.655,0.592,13.85,0.592,40.802C332.028,282.551,331.91,285.707,331.437,296.361z"/>
<path fill="#FFFFFF" d="M249.2,203.629c-28.647,0-51.891,23.242-51.891,51.891s23.243,51.89,51.891,51.89
	c28.65,0,51.891-23.241,51.891-51.89S277.85,203.629,249.2,203.629z M249.2,289.181c-18.585,0-33.66-15.074-33.66-33.661
	s15.075-33.66,33.66-33.66c18.587,0,33.66,15.074,33.66,33.66S267.787,289.181,249.2,289.181z"/>
<path fill="#FFFFFF" d="M315.258,201.578c0,6.69-5.424,12.114-12.115,12.114c-6.69,0-12.114-5.424-12.114-12.114
	c0-6.691,5.424-12.114,12.114-12.114C309.834,189.464,315.258,194.887,315.258,201.578z"/>
</svg>
