<?xml version="1.0" encoding="utf-8"?>
<!-- Generator: Adobe Illustrator 16.0.0, SVG Export Plug-In . SVG Version: 6.00 Build 0)  -->
<!DOCTYPE svg PUBLIC "-//W3C//DTD SVG 1.1//EN" "http://www.w3.org/Graphics/SVG/1.1/DTD/svg11.dtd">
<svg version="1.1" id="Layer_1" xmlns="http://www.w3.org/2000/svg" xmlns:xlink="http://www.w3.org/1999/xlink" x="0px" y="0px"
	 width="1280px" height="800px" viewBox="0 0 1280 800" enable-background="new 0 0 1280 800" xml:space="preserve">
<g id="XMLID_801_">
	<path id="XMLID_802_" fill="#FFFFFF" d="M574.867,334.296h-50.769c-2.253,0-4.079,1.826-4.079,4.079v163.097
		c0,2.254,1.825,4.079,4.079,4.079h50.769c2.253,0,4.079-1.825,4.079-4.079V338.375C578.946,336.122,577.12,334.296,574.867,334.296
		z"/>
	<path id="XMLID_803_" fill="#FFFFFF" d="M549.501,253.216c-18.473,0-33.501,15.012-33.501,33.464
		c0,18.46,15.028,33.478,33.501,33.478c18.458,0,33.474-15.019,33.474-33.478C582.976,268.228,567.958,253.216,549.501,253.216z"/>
	<path id="XMLID_804_" fill="#FFFFFF" d="M704,330.242c-20.39,0-35.463,8.765-44.605,18.726v-10.593
		c0-2.252-1.826-4.079-4.079-4.079h-48.62c-2.253,0-4.079,1.826-4.079,4.079v163.097c0,2.254,1.825,4.079,4.079,4.079h50.658
		c2.253,0,4.079-1.825,4.079-4.079v-80.694c0-27.193,7.385-37.787,26.341-37.787c20.645,0,22.285,16.982,22.285,39.184v79.298
		c0,2.254,1.825,4.079,4.078,4.079h50.677c2.254,0,4.079-1.825,4.079-4.079v-89.462C768.893,371.577,761.183,330.242,704,330.242z"
		/>
</g>
</svg>
