<?xml version="1.0" encoding="utf-8"?>
<!-- Generator: Adobe Illustrator 16.0.0, SVG Export Plug-In . SVG Version: 6.00 Build 0)  -->
<!DOCTYPE svg PUBLIC "-//W3C//DTD SVG 1.1//EN" "http://www.w3.org/Graphics/SVG/1.1/DTD/svg11.dtd">
<svg version="1.1" id="Layer_1" xmlns="http://www.w3.org/2000/svg" xmlns:xlink="http://www.w3.org/1999/xlink" x="0px" y="0px"
	 width="1280px" height="800px" viewBox="0 0 1280 800" enable-background="new 0 0 1280 800" xml:space="preserve">
<g>
	<path fill="#00B1EA" d="M955.178,389.707c-0.318,0.664-0.175,1.379-0.227,2.072c-0.564,7.583-2.451,14.766-6.605,21.22
		c-4.392,6.822-10.634,10.956-18.577,12.533c-2.991,0.594-6.017,0.896-9.063,0.979c-12.92,0.355-25.841,0.074-38.759,0.161
		c-0.996,0.007-0.992-0.014-0.998-1.056c-0.032-8.275,0.156-16.549,0.233-24.822c0.01-1.004,0.021-1.016,1.044-1.017
		c4.023-0.005,8.043-0.005,12.065,0c1.052,0.001,1.091,0.012,1.085,1.118c-0.015,3.084-0.071,6.166-0.102,9.248
		c-0.016,1.575-0.017,1.387,1.384,1.408c5.892,0.091,11.783,0.313,17.678,0.134c3.748-0.114,7.477-0.433,11.124-1.385
		c7.05-1.841,11.726-6.179,13.611-13.262c1.961-7.369,2.16-14.794,0.179-22.205c-0.782-2.932-2.091-5.627-4.067-7.964
		c-2.698-3.192-6.173-4.939-10.277-5.506c-2.557-0.354-5.13-0.417-7.706-0.414c-6.675,0.011-13.351,0.023-20.026,0.034
		c-0.117,0-0.233,0-0.351,0c-1.134,0.013-1.111,0.014-1.191,1.145c-0.18,2.535-0.134,5.069-0.024,7.604
		c0.023,0.545,0.014,1.093,0.005,1.639c-0.02,1.016-0.025,1.026-1.053,1.027c-4.1,0.006-8.198,0.006-12.298,0
		c-0.887-0.001-0.906-0.016-0.904-0.899c0.021-7.963,0.045-15.926,0.076-23.89c0.002-0.884,0.022-0.904,0.933-0.909
		c2.225-0.013,4.45-0.002,6.676-0.005c9.485-0.01,18.972-0.056,28.457-0.019c4.369,0.018,8.744,0.134,13.038,1.083
		c8.589,1.9,15.113,6.642,19.48,14.293c2.328,4.08,3.66,8.51,4.446,13.118c0.289,1.693,0.521,3.392,0.519,5.116
		c-0.001,0.256-0.077,0.556,0.195,0.75C955.178,383.929,955.178,386.818,955.178,389.707z"/>
	<path fill="#7FD7F4" d="M420.152,344.73c-0.012,0.087-0.024,0.176-0.036,0.263c-0.415,0.381-0.938,0.343-1.439,0.344
		c-3.311,0.013-6.622,0.013-9.934,0c-0.501-0.001-1.024,0.037-1.439-0.345c-0.012-0.088-0.024-0.175-0.036-0.263
		C411.563,344.73,415.857,344.73,420.152,344.73z"/>
	<path fill="#00B1EA" d="M525.237,385.602c0.482,0.149,0.972,0.279,1.446,0.451c3.725,1.348,6.005,4.066,7.28,7.724
		c0.778,2.232,1.116,4.55,1.155,6.897c0.057,3.395,0.049,6.792,0.002,10.188c-0.024,1.752-0.183,3.501-0.608,5.218
		c-1.085,4.387-3.765,7.353-7.935,9.018c-2.643,1.056-5.419,1.455-8.233,1.584c-3.433,0.159-6.869,0.021-10.304,0.016
		c-12.491-0.021-24.984-0.017-37.476-0.021c-1.99,0-1.976,0-1.961-1.953c0.042-5.621,0.068-11.242,0.106-16.863
		c0.006-0.781,0.036-1.561,0.075-2.341c0.041-0.8,0.051-0.808,0.901-0.82c0.703-0.014,1.405-0.002,2.108-0.002
		c3.317,0,6.636-0.004,9.954,0c0.964,0.003,0.977,0.013,0.981,0.946c0.009,1.757-0.001,3.514,0.005,5.269
		c0.002,1.036,0.01,1.043,1.005,1.07c3.51,0.101,7.02,0.188,10.534,0.155c5.347-0.049,10.694,0.012,16.039,0.203
		c2.336,0.082,4.681-0.013,7.004-0.347c0.383-0.057,0.762-0.165,1.132-0.281c1.583-0.496,2.575-1.507,2.907-3.184
		c0.61-3.083,0.804-6.185,0.578-9.315c-0.089-1.243-0.2-2.483-0.511-3.702c-0.395-1.548-1.365-2.502-2.849-2.98
		c-0.819-0.264-1.666-0.414-2.525-0.458c-0.662-0.036-1.326-0.05-1.99-0.05c-9.916-0.002-19.831-0.001-29.746-0.001
		c-0.078,0-0.157,0-0.234,0c-1.315,0.005-1.315,0.005-1.323,1.364c-0.007,0.958-0.007,0.973-0.979,0.975
		c-4.021,0.007-8.042,0.007-12.063,0c-0.869-0.002-0.909-0.02-0.915-0.922c-0.01-1.951,0.031-3.903,0.042-5.854
		c0.023-4.254,0.039-8.509,0.061-12.764c0.006-1.011,0.013-1.022,1.03-1.023c4.021-0.005,8.042-0.005,12.063,0
		c0.991,0.001,1.004,0.014,0.996,1.057c-0.007,0.937-0.061,1.873-0.075,2.809c-0.014,0.965-0.004,0.982,0.943,0.993
		c3.396,0.04,6.792,0.087,10.188,0.095c6.832,0.014,13.663,0.006,20.494,0.002c1.209-0.001,2.417-0.008,3.606-0.299
		c2.072-0.507,3.129-1.651,3.462-3.766c0.122-0.773,0.192-1.547,0.188-2.33c-0.008-2.069-0.013-4.139,0.001-6.207
		c0.006-0.863-0.097-1.713-0.217-2.563c-0.216-1.522-1.042-2.569-2.462-3.157c-1.501-0.621-3.086-0.842-4.686-0.911
		c-2.77-0.122-5.54-0.072-8.309,0.12c-0.855,0.058-1.717,0.053-2.575,0.053c-6.403,0.004-12.804,0.001-19.207,0.003
		c-1.295,0-1.302,0.002-1.344,1.266c-0.02,0.584-0.028,1.172-0.001,1.756c0.025,0.538-0.148,0.826-0.73,0.748
		c-0.077-0.01-0.156,0-0.234,0c-4.021,0-8.042,0.004-12.063-0.002c-0.897-0.001-0.918-0.018-0.92-0.896
		c-0.006-4.997-0.007-9.994,0.002-14.991c0-0.843,0.024-0.847,0.842-0.876c0.312-0.011,0.624-0.002,0.937-0.002
		c15.732,0,31.464-0.01,47.197,0.01c2.143,0.002,4.291,0.048,6.424,0.339c0.814,0.111,1.614,0.268,2.408,0.47
		c3.743,0.953,6.07,3.341,7.136,7.02c0.681,2.348,0.826,4.766,0.874,7.182c0.07,3.473,0.049,6.947,0.024,10.421
		c-0.011,1.444-0.178,2.883-0.519,4.291c-0.997,4.11-3.512,6.877-7.459,8.359c-0.568,0.213-1.144,0.409-1.715,0.613
		C525.213,385.469,525.225,385.536,525.237,385.602z"/>
	<path fill="#939598" d="M652.21,497.399c0.68-0.684,1.169-1.531,1.734-2.315c7.746-10.773,15.485-21.551,23.208-32.342
		c0.452-0.631,0.933-0.897,1.733-0.895c10.97,0.027,21.939,0.018,32.91,0.018c0.195,0,0.391,0.01,0.586,0.003
		c0.38-0.01,0.591,0.142,0.575,0.547c-0.007,0.235,0.006,0.469,0.006,0.704c0,3.98,0,7.964,0,11.945
		c0,0.234-0.009,0.468-0.006,0.703c0.008,0.396-0.192,0.561-0.577,0.553c-0.311-0.006-0.624,0.005-0.937,0.005
		c-6.285,0-12.571,0.012-18.857-0.015c-0.776-0.004-1.271,0.211-1.735,0.873c-7.709,10.988-15.449,21.957-23.181,32.933
		c-6,8.518-11.996,17.04-17.995,25.559c-0.066,0.094-0.156,0.169-0.235,0.255c-0.107-0.132,0.039,0.05-0.11,0.003
		c-0.034-0.012-0.074-0.043-0.087-0.075c-13.964-34.857-27.927-69.716-41.886-104.573c-0.069-0.173-0.184-0.345-0.109-0.566
		c0.235-0.271,0.567-0.183,0.865-0.183c4.725-0.007,9.448,0.012,14.172-0.021c0.713-0.007,1.036,0.267,1.298,0.878
		c3.008,7.027,6.033,14.048,9.059,21.066c2.531,5.873,5.067,11.745,7.599,17.617c3.088,7.164,6.173,14.326,9.258,21.491
		c0.756,1.756,1.513,3.509,2.271,5.265C651.858,497.045,651.929,497.271,652.21,497.399z"/>
	<path fill="#00B1EA" d="M653.098,426.677c-7.751,0-14.426,0-21.102,0c-0.274,0-0.549-0.024-0.819,0.004
		c-0.581,0.062-0.739-0.218-0.736-0.754c0.007-1.717-0.034-3.435-0.026-5.151c0.034-7.143,0.078-14.283,0.122-21.424
		c0.005-0.895,0.014-0.913,0.906-0.916c4.138-0.007,8.275-0.007,12.413,0.001c0.88,0.002,0.899,0.023,0.9,0.932
		c0.01,3.709,0.004,7.417,0.004,11.126c0,0.999-0.095,1.033,0.994,1.065c5.892,0.176,11.786,0.306,17.677,0.118
		c4.371-0.141,8.719-0.55,12.922-1.903c6.729-2.163,10.799-6.808,12.41-13.582c1.59-6.688,1.794-13.444,0.298-20.188
		c-0.825-3.714-2.37-7.095-5.084-9.856c-2.677-2.726-5.996-4.143-9.697-4.786c-3.479-0.605-6.985-0.606-10.498-0.529
		c-5.307,0.115-10.606,0.496-15.917,0.322c-0.703-0.023-1.406-0.027-2.107-0.077c-0.5-0.035-0.705,0.15-0.705,0.656
		c-0.001,1.015-0.05,2.029-0.054,3.044c-0.006,1.756,0.013,3.513,0.009,5.27c-0.003,0.912-0.017,0.931-0.879,0.932
		c-4.176,0.007-8.354,0.008-12.53,0c-0.805-0.002-0.825-0.025-0.827-0.865c-0.011-6.05-0.015-12.1,0.122-18.148
		c0.035-1.482,0.039-2.966,0.012-4.45c-0.01-0.6,0.168-0.887,0.797-0.823c0.27,0.027,0.545,0.003,0.819,0.003
		c7.885,0,15.771,0,23.657,0c3.942,0,7.885-0.052,11.825,0.014c4.212,0.071,8.422,0.248,12.553,1.226
		c8.87,2.099,15.272,7.355,19.513,15.326c2.372,4.46,3.688,9.259,4.267,14.264c1.035,8.961,0.226,17.761-2.426,26.374
		c-1.485,4.82-3.753,9.245-7.114,13.06c-4.074,4.626-9.211,7.373-15.213,8.577c-2.913,0.583-5.86,0.846-8.827,0.982
		C664.512,426.81,658.266,426.598,653.098,426.677z"/>
	<path fill="#00B1EA" d="M739.154,426.677c-7.789,0-14.503,0.001-21.219-0.002c-1.645,0-1.401,0.121-1.422-1.46
		c-0.105-8.629,0.206-17.252,0.167-25.879c-0.004-0.881,0.02-0.897,0.92-0.899c4.098-0.007,8.197-0.007,12.298,0
		c0.945,0.002,0.967,0.019,0.963,0.992c-0.019,3.591-0.053,7.181-0.082,10.773c-0.002,0.195,0.006,0.391-0.015,0.585
		c-0.056,0.528,0.12,0.765,0.706,0.772c6.322,0.094,12.645,0.334,18.967,0.099c3.469-0.129,6.918-0.489,10.316-1.287
		c7.396-1.735,11.976-6.348,14.037-13.572c1.21-4.248,1.466-8.601,1.301-12.987c-0.123-3.322-0.521-6.609-1.521-9.798
		c-0.946-3.02-2.361-5.769-4.621-8.037c-2.979-2.991-6.701-4.313-10.782-4.853c-4.67-0.618-9.353-0.344-14.027-0.138
		c-4.214,0.186-8.425,0.303-12.639,0.127c-1.523-0.063-1.244-0.092-1.328,1.178c-0.156,2.378-0.004,4.762-0.087,7.141
		c-0.065,1.868,0.1,1.538-1.607,1.546c-3.865,0.019-7.731,0.008-11.596,0.004c-1.102-0.001-1.135-0.008-1.101-1.065
		c0.196-6.243,0.155-12.49,0.218-18.734c0.011-1.209-0.004-2.421,0.015-3.63c0.012-0.815,0.036-0.822,0.877-0.854
		c0.156-0.006,0.313,0,0.469,0c11.203-0.012,22.408-0.045,33.612-0.021c3.744,0.008,7.489,0.115,11.211,0.621
		c10.904,1.481,18.759,7.188,23.58,17.054c2.146,4.393,3.304,9.074,3.781,13.927c0.872,8.847,0.055,17.527-2.645,26.006
		c-1.202,3.777-2.924,7.314-5.27,10.527c-4.221,5.78-9.872,9.316-16.874,10.722c-2.836,0.569-5.706,0.845-8.593,0.98
		C750.805,426.813,744.441,426.602,739.154,426.677z"/>
	<path fill="#00B1EA" d="M621.302,426.708c-1.675,0.057-3.382,0.152-5.089,0.167c-3.16,0.026-6.32,0.012-9.481,0.004
		c-1.247-0.003-1.099,0.174-1.601-1.06c-4.111-10.116-8.234-20.228-12.328-30.35c-4.313-10.666-8.506-21.377-12.674-32.1
		c-0.083-0.217-0.176-0.431-0.369-0.895c-4.595,10.856-9.054,21.538-13.532,32.238c0.526,0.254,0.958,0.16,1.37,0.161
		c5.661,0.007,11.321,0.004,16.981,0.006c1.467,0,1.142-0.058,1.586,1.048c1.539,3.837,3.063,7.679,4.585,11.522
		c0.227,0.571,0.473,1.142,0.591,1.892c-0.48,0-0.895,0-1.31,0c-9.563,0-19.128-0.005-28.692,0.005
		c-1.454,0.001-1.16-0.233-1.755,1.178c-2.167,5.139-4.32,10.284-6.442,15.441c-0.279,0.678-0.616,0.939-1.362,0.934
		c-4.059-0.037-8.119-0.018-12.18-0.018c-0.156,0-0.313-0.006-0.468-0.003c-0.435,0.004-0.564-0.206-0.4-0.593
		c0.319-0.755,0.649-1.504,0.977-2.255c7.135-16.333,14.262-32.669,21.409-48.998c3.895-8.897,7.812-17.783,11.738-26.666
		c0.81-1.832,0.354-1.479,2.271-1.49c3.591-0.021,7.183,0.024,10.773-0.027c0.899-0.013,1.364,0.216,1.736,1.093
		c3.213,7.575,6.486,15.125,9.741,22.683c6.232,14.47,12.464,28.942,18.697,43.412c1.667,3.868,3.343,7.733,5.004,11.602
		C621.213,425.949,621.476,426.242,621.302,426.708z"/>
	<path fill="#00B1EA" d="M400.182,426.519c-1.361,0.056-2.644,0.146-3.928,0.149c-3.629,0.013-7.26-0.011-10.89-0.018
		c-0.943-0.004-0.951,0-1.324-0.913c-4.052-9.929-8.122-19.852-12.146-29.792c-4.404-10.88-8.704-21.801-12.915-32.757
		c-0.093-0.242-0.205-0.476-0.396-0.919c-4.767,10.792-9.1,21.552-13.582,32.252c0.499,0.262,0.933,0.159,1.348,0.159
		c5.699,0.008,11.398,0.001,17.097,0.009c1.236,0.001,1.059-0.18,1.561,1.089c1.547,3.916,3.115,7.826,4.657,11.745
		c0.194,0.493,0.473,0.98,0.423,1.622c-0.449,0-0.875,0-1.3,0c-9.564,0-19.127,0-28.691,0c-1.302,0-1.311-0.002-1.854,1.231
		c-2.205,4.996-4.212,10.072-6.221,15.149c-0.455,1.148-0.456,1.15-1.654,1.15c-3.942,0.001-7.885,0.003-11.828-0.005
		c-0.338-0.001-0.691,0.094-1.017-0.088c-0.089-0.392,0.145-0.687,0.281-0.999c7.326-16.803,14.647-33.608,21.993-50.401
		c3.954-9.04,7.946-18.064,11.938-27.088c0.709-1.603,0.303-1.389,2.106-1.395c3.669-0.012,7.339,0.021,11.007-0.023
		c0.829-0.01,1.224,0.26,1.552,1.025c6.907,16.133,13.837,32.256,20.778,48.375c4.195,9.742,8.417,19.474,12.622,29.214
		C399.95,425.644,400.19,425.97,400.182,426.519z"/>
	<path fill="#00B1EA" d="M871.893,426.51c-0.525,0.247-0.918,0.161-1.297,0.162c-4.413,0.006-8.824,0.005-13.234,0.005
		c-1.224,0-1.222-0.004-1.686-1.12c-7.993-19.232-15.62-38.61-23.236-57.993c-0.656-1.667-1.312-3.333-1.995-5.068
		c-0.464,0.27-0.547,0.705-0.708,1.068c-2.71,6.137-5.27,12.338-7.859,18.526c-1.626,3.885-3.279,7.76-4.919,11.64
		c-0.104,0.247-0.201,0.498-0.323,0.803c0.435,0.254,0.867,0.145,1.269,0.146c5.659,0.009,11.32,0.031,16.979-0.02
		c0.928-0.008,1.375,0.271,1.743,1.114c1.812,4.147,3.438,8.369,5.063,12.59c0.081,0.213,0.123,0.44,0.187,0.663
		c-0.46,0.21-0.892,0.113-1.309,0.113c-9.603,0.006-19.206,0.024-28.809-0.022c-0.993-0.005-1.43,0.349-1.803,1.195
		c-1.992,4.537-3.755,9.168-5.657,13.741c-0.255,0.611-0.551,1.209-0.768,1.833c-0.211,0.607-0.564,0.811-1.219,0.805
		c-3.825-0.033-7.651-0.015-11.477-0.015c-0.531,0-1.063,0-1.746,0c0.38-0.902,0.687-1.649,1.011-2.392
		c7.825-17.905,15.646-35.811,23.482-53.712c3.364-7.682,6.769-15.346,10.127-23.03c0.278-0.636,0.616-0.865,1.305-0.859
		c3.863,0.029,7.729,0.044,11.593-0.009c0.859-0.012,1.219,0.315,1.533,1.053c3.541,8.284,7.108,16.558,10.674,24.831
		c7.567,17.55,15.166,35.086,22.574,52.704C871.552,425.651,871.704,426.047,871.893,426.51z"/>
	<path fill="#00B1EA" d="M407.304,344.994c4.271,0,8.541,0,12.812,0c0.012,0.507,0.033,1.014,0.033,1.521
		c0.002,21.668,0,43.336,0.004,65.001c0,1.592-0.206,1.438,1.435,1.438c12.57,0.003,25.142,0.001,37.712,0.005
		c1.535,0,1.395-0.169,1.396,1.361c0.005,3.631,0.007,7.262-0.001,10.892c-0.004,1.657,0.181,1.459-1.408,1.461
		c-5.466,0.008-10.932,0.004-16.397,0.004c-11.438,0-22.877,0.001-34.316-0.002c-1.439,0-1.304,0.127-1.304-1.338
		c-0.002-26.43-0.002-52.861,0-79.291C407.271,345.695,407.293,345.345,407.304,344.994z"/>
	<path fill="#939598" d="M739.803,457.328c0.583-0.965,0.871-2.059,1.272-3.096c2.436-6.29,4.847-12.589,7.271-18.883
		c0.421-1.093,0.435-1.091,1.578-1.091c3.941-0.003,7.885-0.004,11.827,0c1.107,0.001,1.121,0.011,1.121,1.069
		c0.004,13.31,0.004,26.62,0,39.931c0,1.046-0.014,1.061-1.012,1.063c-2.812,0.008-5.621,0.01-8.432-0.001
		c-0.903-0.004-0.938-0.034-0.938-0.914c-0.006-5.544-0.045-11.086,0.021-16.629c0.027-2.259,0.578-4.478,0.855-6.719
		c0.196-1.576,0.434-3.147,0.655-4.734c-0.533-0.017-0.494,0.332-0.581,0.561c-1.092,2.838-2.185,5.676-3.26,8.521
		c-1.286,3.395-2.894,6.648-4.347,9.972c-0.468,1.072-0.99,2.121-1.431,3.206c-0.193,0.472-0.458,0.658-0.958,0.655
		c-2.46-0.013-4.918-0.027-7.377,0.008c-0.675,0.01-0.855-0.418-1.065-0.887c-1.098-2.455-2.168-4.925-3.301-7.365
		c-2.117-4.571-3.724-9.342-5.588-14.013c-0.098-0.242-0.115-0.532-0.481-0.685c-0.156,1.12,0.159,2.167,0.303,3.214
		c0.582,4.245,1.28,8.465,1.136,12.785c-0.128,3.822-0.026,7.65-0.026,11.475c0,0.234,0.006,0.468-0.002,0.703
		c-0.03,0.818-0.032,0.842-0.876,0.847c-2.188,0.013-4.372,0.005-6.559,0.005c-0.702,0-1.405-0.022-2.106,0.005
		c-0.579,0.024-0.897-0.157-0.837-0.79c0.021-0.232,0.002-0.469,0.002-0.702c0-13.038,0-26.075,0.001-39.113
		c0-1.594-0.13-1.466,1.436-1.466c3.786-0.003,7.572-0.01,11.358,0.001c1.714,0.005,1.389-0.21,1.979,1.346
		c2.661,7.037,5.31,14.08,7.96,21.12C739.485,456.943,739.517,457.185,739.803,457.328z"/>
	<path fill="#939598" d="M831.025,435.97c0-0.233-0.024-0.468,0-0.703c0.068-0.634-0.254-0.789-0.828-0.785
		c-1.718,0.024-3.435,0.01-5.154,0.01c-1.132,0-2.265,0.015-3.396-0.004c-0.499-0.01-0.724,0.186-0.693,0.688
		c0.019,0.273,0.005,0.547,0.005,0.819c0,3.436,0,6.871-0.005,10.308c0,0.287,0.063,0.595-0.147,0.946
		c-1.787-1.034-3.66-1.381-5.656-1.371c-4.655,0.02-8.15,2.056-10.609,5.943c-1.444,2.285-2.146,4.817-2.41,7.497
		c-0.42,4.294,0.321,8.324,2.718,11.957c4.026,6.099,12.044,6.67,16.769,2.513c0.229-0.201,0.482-0.376,0.858-0.66
		c0.21,0.826,0.385,1.499,0.552,2.178c0.239,1.01,0.234,1.016,1.298,1.021c1.757,0.004,3.514,0.004,5.271,0
		c1.596-0.005,1.424,0.121,1.424-1.47C831.025,461.894,831.025,448.932,831.025,435.97z M820.09,467.354
		c-2.03,1.319-6.037,0.609-7.219-2.156c-1.161-2.718-1.268-5.451,0.044-8.136c1.313-2.698,4.197-3.966,7.545-2.431
		c0.448,0.206,0.497,0.533,0.497,0.948c-0.009,1.751-0.005,3.509-0.005,5.261c0,1.678-0.038,3.353,0.021,5.032
		C820.993,466.607,820.666,466.983,820.09,467.354z"/>
	<path fill="#939598" d="M936.23,447.253c0.643-0.25,1.104-0.441,1.576-0.611c5.275-1.903,11.957-0.34,15.291,4.878
		c1.172,1.838,1.871,3.842,1.873,6.06c0.004,5.93,0.028,11.86,0.035,17.791c0.001,0.932-0.022,0.947-1.019,0.951
		c-2.614,0.009-5.229,0.008-7.842,0c-1.021-0.002-1.033-0.016-1.035-1.035c-0.005-4.369-0.003-8.74-0.003-13.109
		c0-1.093,0.008-2.187-0.005-3.278c-0.04-3.393-2.741-5.019-5.611-4.915c-0.887,0.032-1.768,0.241-2.616,0.567
		c-0.486,0.186-0.687,0.454-0.647,0.955c0.021,0.27,0.003,0.543,0.003,0.818c0,6.164,0,12.328,0,18.492
		c0,0.275-0.015,0.548,0.001,0.82c0.03,0.5-0.195,0.702-0.691,0.69c-0.78-0.018-1.561-0.003-2.34-0.003
		c-2.028,0-4.059,0.01-6.087-0.007c-0.876-0.005-0.901-0.054-0.931-0.944c-0.008-0.232-0.002-0.468-0.002-0.702
		c0-12.836,0-25.672,0-38.508c0-1.813-0.127-1.673,1.613-1.673c2.38-0.003,4.76-0.001,7.141,0c1.335,0,1.298-0.104,1.298,1.249
		c-0.002,3.472,0,6.943,0,10.416C936.23,446.467,936.23,446.775,936.23,447.253z"/>
	<path fill="#939598" d="M891.478,457.632c-0.811-4.758-3.198-8.422-7.541-10.647c-3.66-1.878-7.548-2.093-11.497-1.156
		c-4.783,1.137-8.052,4.084-9.955,8.589c-1.07,2.527-1.406,5.178-1.24,7.901c0.189,3.061,1.126,5.871,2.894,8.399
		c3.675,5.24,10.659,7.031,16.373,5.534c3.222-0.846,5.603-2.987,7.838-5.315c0.386-0.395,0.132-0.585-0.151-0.833
		c-1.439-1.255-2.895-2.498-4.299-3.793c-0.435-0.4-0.679-0.316-1.054,0.049c-2.036,1.981-4.485,2.527-7.228,2.05
		c-2.212-0.39-3.816-1.898-4.14-4.013h1.381c5.773,0,11.552,0,17.325-0.004c1.093,0,1.123-0.044,1.269-1.054
		C891.726,461.436,891.799,459.537,891.478,457.632z M881.331,457.677c-3.031,0.006-6.066,0.01-9.102,0
		c-0.991-0.005-1.054-0.088-0.698-0.98c0.742-1.884,2.245-2.807,4.148-3.186c2.255-0.45,4.65,0.564,5.754,2.43
		c0.297,0.503,0.526,1.029,0.488,1.678C881.712,457.638,881.521,457.677,881.331,457.677z"/>
	<path fill="#939598" d="M797.977,456.413c-1.195-4.782-4.011-8.213-8.652-10.023c-3.371-1.318-6.836-1.372-10.331-0.518
		c-3.7,0.912-6.578,2.991-8.579,6.223c-2.304,3.708-2.914,7.772-2.196,12.034c1.557,9.22,9.355,13.688,17.861,12.396
		c3.899-0.591,6.71-3.083,9.253-5.875c-0.186-0.456-0.531-0.66-0.814-0.918c-1.254-1.113-2.543-2.188-3.773-3.329
		c-0.478-0.448-0.761-0.429-1.229,0.015c-2.017,1.922-4.442,2.465-7.141,1.99c-2.182-0.381-3.781-1.854-4.191-4.011h1.371
		c5.778,0,11.552,0,17.325-0.005c1.111,0,1.15-0.029,1.313-1.015C798.573,461.045,798.554,458.712,797.977,456.413z
		 M783.126,457.683c-1.478-0.006-2.952,0.009-4.43-0.011c-0.615-0.011-0.689-0.135-0.528-0.707c0.273-0.971,0.863-1.729,1.645-2.343
		c1.981-1.556,5.052-1.591,7.081-0.103c1.021,0.753,1.601,1.758,1.846,3.163H783.126z"/>
	<path fill="#939598" d="M854.431,460.059c0,4.918,0,9.836,0,14.754c0,0.274-0.014,0.548,0,0.82
		c0.023,0.508-0.242,0.698-0.715,0.688c-0.274-0.006-0.548,0.004-0.82,0.004c-2.655,0-5.309,0.003-7.963-0.003
		c-1.217-0.001-1.225-0.01-1.225-1.234c-0.004-9.916,0.001-19.83-0.004-29.742c-0.001-1.746,0.187-1.556-1.564-1.563
		c-2.304-0.01-4.605,0.001-6.909-0.004c-1.113-0.002-1.124-0.01-1.126-1.062c-0.007-2.382-0.009-4.763,0-7.143
		c0.005-1.056,0.021-1.081,1.024-1.081c9.328-0.005,18.657-0.005,27.985,0c0.963,0,0.979,0.021,0.981,0.979
		c0.011,2.46,0.011,4.918,0,7.376c-0.005,0.902-0.024,0.923-0.915,0.928c-2.576,0.012-5.152-0.001-7.729,0.008
		c-1.005,0.003-1.018,0.016-1.019,1.052C854.429,449.91,854.431,454.984,854.431,460.059z"/>
	<path fill="#939598" d="M922.424,450.979c-1.798,1.837-3.52,3.584-5.227,5.348c-0.295,0.305-0.5,0.224-0.786-0.001
		c-0.519-0.412-1.047-0.821-1.613-1.161c-2.47-1.482-6.396-1.293-8.312,0.925c-0.961,1.11-1.409,2.425-1.575,3.835
		c-0.313,2.674,0.276,5.077,2.478,6.816c2.257,1.785,5.334,1.7,7.951-0.129c0.51-0.357,0.983-0.769,1.438-1.195
		c0.318-0.298,0.558-0.334,0.887-0.02c1.632,1.568,3.273,3.126,4.922,4.676c0.327,0.308,0.316,0.577,0.041,0.904
		c-2.627,3.122-5.753,5.325-9.978,5.679c-2.201,0.185-4.362,0.084-6.488-0.48c-5.916-1.571-9.582-5.422-10.878-11.339
		c-1.038-4.737-0.243-9.245,2.752-13.199c2.512-3.315,5.95-5.062,10.002-5.7c2.02-0.317,4.038-0.305,6.052,0.063
		c2.699,0.492,4.922,1.895,6.948,3.663C921.477,450.047,921.884,450.466,922.424,450.979z"/>
	<path fill="#01B1EA" d="M905.493,381.038c-0.288-1.473-1.123-2.474-2.626-2.811c-2.083-0.469-4.192-0.415-6.271-0.078
		c-1.626,0.263-2.333,1.118-2.592,2.747c-0.254,1.547-0.196,3.114-0.079,4.666c0.123,1.581,0.875,2.328,2.432,2.743
		c1.229,0.322,2.479,0.253,3.723,0.258c1.338,0.005,2.641-0.111,3.826-1.356c0,1.558,0.04,2.807-0.01,4.051
		c-0.049,1.322-0.639,2.025-1.85,2.171c-1.551,0.186-3.113,0.196-4.666,0c-1.122-0.137-1.556-0.635-1.697-1.747
		c-0.132-1.016-0.132-0.991-1.099-0.991c-0.536,0-0.752,0.146-0.766,0.727c-0.079,2.323,0.966,3.646,3.274,3.872
		c1.709,0.166,3.436,0.166,5.144,0c2.074-0.206,3.031-1.197,3.329-3.275c0.068-0.502,0.111-1.011,0.116-1.513
		c0.01-2.459-0.005-4.914,0.01-7.373C905.698,382.419,905.625,381.722,905.493,381.038z M903.887,384.694
		c-0.058,1.235-0.531,1.767-1.722,1.986c-1.664,0.298-3.337,0.273-4.997-0.02c-0.933-0.16-1.386-0.615-1.445-1.567
		c-0.063-1.166-0.067-2.342,0.005-3.504c0.068-1.054,0.547-1.527,1.616-1.673c0.771-0.107,1.557-0.103,2.161-0.137
		c0.875,0.044,1.581,0.034,2.27,0.132c1.396,0.19,2.056,0.927,2.113,2.328C903.926,383.059,903.931,383.879,903.887,384.694z"/>
	<path fill="#01B1EA" d="M910.199,395.069c2.639-5.024,5.236-9.969,7.835-14.911c-0.413-0.333-0.777-0.225-1.106-0.228
		c-2.496-0.01-4.992-0.001-7.489-0.012c-0.292-0.001-0.724,0.141-0.834-0.217c-0.134-0.432-0.182-0.946,0.04-1.365
		c0.164-0.313,0.566-0.17,0.863-0.172c2.302-0.01,4.602-0.006,6.904-0.005c0.976,0,1.95,0.025,2.924-0.007
		c0.563-0.019,0.746,0.188,0.74,0.745c-0.006,0.714-0.109,1.358-0.451,2.014c-2.245,4.322-4.484,8.649-6.644,13.017
		c-0.472,0.955-1.02,1.386-2.052,1.201C910.741,395.094,910.547,395.095,910.199,395.069z"/>
	<path fill="#03B2EA" d="M928.365,380.08c-1.233,1.303-2.377,2.51-3.489,3.684c-0.328-0.067-0.467-0.265-0.626-0.434
		c-0.574-0.611-0.582-0.619-0.044-1.202c1.031-1.115,2.124-2.178,3.097-3.342c0.789-0.945,1.77-0.555,2.698-0.581
		c0.224-0.007,0.296,0.215,0.302,0.423c0.008,0.272,0.009,0.545,0.009,0.818c0.001,4.791,0.001,9.583,0.001,14.373
		c0,0.116,0.009,0.235-0.002,0.351c-0.031,0.299,0.137,0.716-0.174,0.865c-0.419,0.199-0.913,0.121-1.377,0.042
		c-0.183-0.03-0.229-0.193-0.234-0.352c-0.011-0.311-0.013-0.622-0.013-0.934c-0.002-4.129,0.002-8.258-0.005-12.387
		C928.506,381.023,928.583,380.634,928.365,380.08z"/>
	<path fill="#00B1EA" d="M886.269,380.132c-1.169,1.234-2.337,2.468-3.501,3.698c-1.211-1.077-1.212-1.078-0.209-2.142
		c0.909-0.964,1.816-1.931,2.729-2.893c0.516-0.543,2.033-0.874,2.687-0.597c0.161,0.068,0.243,0.182,0.252,0.347
		c0.012,0.272,0.018,0.545,0.018,0.817c0.003,4.874,0.002,9.749,0.002,14.623c0,0.195-0.014,0.391-0.002,0.584
		c0.02,0.395-0.154,0.577-0.553,0.554c-0.233-0.013-0.468-0.008-0.703-0.002c-0.349,0.011-0.482-0.171-0.479-0.501
		c0.006-0.272-0.003-0.545-0.003-0.818c0-4.134,0-8.267,0-12.401c0-0.382,0-0.765,0-1.147
		C886.429,380.213,886.348,380.172,886.269,380.132z"/>
</g>
</svg>
