<?xml version="1.0" encoding="utf-8"?>
<!-- Generator: Adobe Illustrator 16.0.0, SVG Export Plug-In . SVG Version: 6.00 Build 0)  -->
<!DOCTYPE svg PUBLIC "-//W3C//DTD SVG 1.1//EN" "http://www.w3.org/Graphics/SVG/1.1/DTD/svg11.dtd">
<svg version="1.1" id="Layer_1" xmlns="http://www.w3.org/2000/svg" xmlns:xlink="http://www.w3.org/1999/xlink" x="0px" y="0px"
	 width="1280px" height="800px" viewBox="0 0 1280 800" enable-background="new 0 0 1280 800" xml:space="preserve">
<g>
	<path fill="#FFFFFF" d="M1219.572,310.65c-0.589,1.232-0.324,2.56-0.421,3.847c-1.048,14.076-4.55,27.41-12.262,39.391
		c-8.152,12.664-19.739,20.338-34.483,23.266c-5.553,1.102-11.17,1.662-16.824,1.816c-23.983,0.66-47.969,0.138-71.949,0.299
		c-1.849,0.012-1.842-0.025-1.853-1.96c-0.06-15.362,0.29-30.72,0.432-46.078c0.02-1.863,0.04-1.885,1.938-1.887
		c7.469-0.009,14.933-0.009,22.397,0c1.952,0.002,2.025,0.022,2.014,2.074c-0.026,5.727-0.132,11.446-0.188,17.167
		c-0.031,2.924-0.033,2.576,2.568,2.614c10.937,0.168,21.873,0.582,32.815,0.249c6.958-0.21,13.879-0.803,20.649-2.571
		c13.087-3.417,21.767-11.47,25.268-24.618c3.64-13.679,4.008-27.462,0.332-41.22c-1.453-5.442-3.882-10.445-7.549-14.783
		c-5.009-5.926-11.461-9.169-19.078-10.221c-4.746-0.658-9.523-0.774-14.305-0.769c-12.391,0.02-24.785,0.042-37.176,0.063
		c-0.218,0-0.432,0-0.65,0c-2.105,0.023-2.063,0.025-2.212,2.125c-0.334,4.706-0.248,9.41-0.044,14.116
		c0.042,1.012,0.025,2.029,0.01,3.042c-0.038,1.885-0.048,1.905-1.955,1.907c-7.611,0.011-15.218,0.011-22.83,0
		c-1.646-0.002-1.681-0.031-1.677-1.669c0.038-14.782,0.083-29.563,0.142-44.347c0.003-1.642,0.04-1.679,1.73-1.688
		c4.13-0.024,8.262-0.004,12.393-0.009c17.608-0.02,35.22-0.105,52.826-0.036c8.11,0.034,16.231,0.248,24.202,2.01
		c15.944,3.528,28.056,12.331,36.16,26.533c4.322,7.574,6.795,15.798,8.254,24.351c0.536,3.144,0.968,6.298,0.965,9.498
		c-0.002,0.475-0.144,1.031,0.36,1.392C1219.572,299.923,1219.572,305.288,1219.572,310.65z"/>
	<path fill="#FFFFFF" d="M226.394,227.159c-0.023,0.162-0.045,0.326-0.067,0.488c-0.771,0.707-1.742,0.636-2.672,0.638
		c-6.146,0.023-12.292,0.023-18.44,0c-0.93-0.002-1.901,0.069-2.672-0.64c-0.022-0.163-0.043-0.324-0.067-0.489
		C210.448,227.159,218.421,227.159,226.394,227.159z"/>
	<path fill="#FFFFFF" d="M421.465,303.029c0.894,0.277,1.804,0.519,2.683,0.837c6.916,2.503,11.147,7.548,13.515,14.339
		c1.445,4.143,2.072,8.446,2.145,12.802c0.105,6.303,0.09,12.608,0.003,18.913c-0.045,3.252-0.339,6.499-1.129,9.686
		c-2.014,8.143-6.988,13.649-14.729,16.74c-4.907,1.961-10.059,2.701-15.284,2.94c-6.372,0.295-12.751,0.04-19.127,0.031
		c-23.188-0.04-46.377-0.033-69.567-0.04c-3.694,0-3.669,0-3.64-3.625c0.078-10.435,0.125-20.867,0.196-31.302
		c0.011-1.45,0.067-2.899,0.14-4.347c0.076-1.485,0.094-1.5,1.673-1.521c1.303-0.027,2.606-0.004,3.912-0.004
		c6.158,0,12.318-0.007,18.478,0c1.789,0.006,1.814,0.024,1.822,1.755c0.016,3.263-0.002,6.524,0.009,9.782
		c0.004,1.923,0.018,1.936,1.866,1.987c6.515,0.187,13.03,0.348,19.555,0.287c9.925-0.091,19.85,0.023,29.773,0.377
		c4.336,0.152,8.689-0.024,13.001-0.644c0.711-0.107,1.414-0.307,2.101-0.522c2.938-0.921,4.78-2.797,5.397-5.91
		c1.131-5.723,1.492-11.482,1.071-17.292c-0.165-2.308-0.37-4.608-0.948-6.872c-0.732-2.874-2.532-4.645-5.288-5.531
		c-1.521-0.491-3.093-0.769-4.688-0.85c-1.229-0.067-2.462-0.092-3.695-0.092c-18.407-0.005-36.811-0.002-55.216-0.002
		c-0.145,0-0.292,0-0.435,0c-2.442,0.009-2.442,0.009-2.457,2.531c-0.013,1.778-0.013,1.807-1.816,1.811
		c-7.465,0.013-14.928,0.013-22.394,0c-1.613-0.004-1.688-0.038-1.699-1.711c-0.018-3.622,0.058-7.246,0.078-10.868
		c0.043-7.896,0.072-15.795,0.114-23.693c0.011-1.878,0.023-1.898,1.911-1.9c7.465-0.009,14.928-0.009,22.394,0
		c1.84,0.001,1.864,0.025,1.849,1.963c-0.013,1.738-0.114,3.475-0.14,5.213c-0.025,1.791-0.007,1.822,1.751,1.844
		c6.303,0.074,12.608,0.161,18.912,0.176c12.682,0.025,25.363,0.011,38.043,0.003c2.244-0.001,4.487-0.014,6.695-0.555
		c3.845-0.94,5.808-3.065,6.426-6.99c0.227-1.436,0.355-2.873,0.348-4.325c-0.014-3.841-0.023-7.685,0.002-11.522
		c0.011-1.603-0.18-3.18-0.402-4.758c-0.401-2.825-1.935-4.768-4.57-5.861c-2.786-1.151-5.729-1.563-8.7-1.689
		c-5.141-0.227-10.284-0.134-15.423,0.221c-1.586,0.109-3.187,0.1-4.78,0.1c-11.885,0.007-23.768,0.001-35.654,0.005
		c-2.404,0-2.417,0.004-2.495,2.35c-0.036,1.084-0.053,2.175-0.002,3.259c0.047,0.999-0.275,1.534-1.356,1.389
		c-0.141-0.018-0.288,0-0.433,0c-7.465,0-14.929,0.007-22.394-0.004c-1.665-0.001-1.704-0.033-1.708-1.662
		c-0.011-9.276-0.013-18.552,0.004-27.829c0-1.564,0.045-1.572,1.564-1.626c0.578-0.02,1.156-0.004,1.738-0.004
		c29.205,0,58.407-0.018,87.613,0.019c3.978,0.003,7.965,0.089,11.925,0.629c1.51,0.207,2.997,0.499,4.47,0.872
		c6.949,1.769,11.267,6.203,13.247,13.032c1.263,4.358,1.533,8.847,1.622,13.331c0.131,6.448,0.091,12.896,0.045,19.345
		c-0.021,2.681-0.332,5.354-0.964,7.966c-1.851,7.63-6.519,12.766-13.846,15.518c-1.055,0.395-2.123,0.759-3.183,1.138
		C421.419,302.782,421.441,302.907,421.465,303.029z"/>
	<path fill="#FFFFFF" d="M657.167,510.562c1.262-1.271,2.17-2.843,3.22-4.298c14.379-20,28.744-40.006,43.081-60.037
		c0.84-1.172,1.731-1.666,3.216-1.662c20.365,0.051,40.727,0.034,61.092,0.034c0.363,0,0.726,0.019,1.088,0.005
		c0.705-0.018,1.097,0.264,1.068,1.016c-0.013,0.438,0.011,0.87,0.011,1.307c0,7.388,0,14.783,0,22.175
		c0,0.433-0.017,0.868-0.011,1.304c0.014,0.736-0.357,1.042-1.072,1.027c-0.576-0.011-1.158,0.01-1.738,0.01
		c-11.667,0-23.336,0.021-35.005-0.029c-1.441-0.008-2.358,0.393-3.222,1.621c-14.311,20.396-28.677,40.759-43.031,61.135
		c-11.138,15.811-22.269,31.631-33.404,47.445c-0.121,0.174-0.29,0.313-0.435,0.473c-0.2-0.244,0.07,0.094-0.205,0.006
		c-0.063-0.021-0.138-0.08-0.161-0.139c-25.922-64.706-51.841-129.416-77.754-194.121c-0.128-0.321-0.342-0.64-0.203-1.051
		c0.437-0.502,1.054-0.339,1.606-0.339c8.771-0.013,17.537,0.021,26.308-0.04c1.323-0.013,1.923,0.497,2.409,1.63
		c5.583,13.044,11.199,26.08,16.815,39.106c4.699,10.901,9.407,21.802,14.107,32.703c5.732,13.299,11.459,26.594,17.186,39.895
		c1.403,3.259,2.808,6.513,4.215,9.772C656.515,509.903,656.645,510.324,657.167,510.562z"/>
	<path fill="#FFFFFF" d="M658.814,379.277c-14.388,0-26.778,0-39.171,0c-0.51,0-1.019-0.043-1.521,0.007
		c-1.079,0.116-1.371-0.404-1.365-1.399c0.013-3.187-0.063-6.376-0.049-9.561c0.063-13.261,0.145-26.515,0.227-39.771
		c0.009-1.661,0.025-1.693,1.682-1.701c7.682-0.013,15.36-0.013,23.043,0.004c1.633,0.003,1.668,0.042,1.67,1.729
		c0.018,6.885,0.007,13.769,0.007,20.654c0,1.854-0.176,1.918,1.846,1.976c10.938,0.328,21.879,0.569,32.815,0.219
		c8.112-0.261,16.185-1.021,23.987-3.532c12.49-4.015,20.046-12.639,23.035-25.212c2.953-12.416,3.33-24.957,0.555-37.476
		c-1.532-6.895-4.399-13.17-9.438-18.295c-4.971-5.062-11.131-7.692-18.001-8.885c-6.459-1.124-12.967-1.126-19.488-0.982
		c-9.853,0.214-19.688,0.921-29.547,0.598c-1.305-0.043-2.61-0.051-3.912-0.143c-0.928-0.065-1.309,0.279-1.309,1.218
		c-0.002,1.884-0.093,3.766-0.1,5.651c-0.011,3.259,0.023,6.521,0.017,9.782c-0.006,1.693-0.031,1.729-1.632,1.731
		c-7.752,0.013-15.507,0.015-23.261,0c-1.493-0.004-1.529-0.047-1.535-1.606c-0.02-11.23-0.027-22.462,0.227-33.689
		c0.065-2.75,0.072-5.505,0.023-8.261c-0.018-1.113,0.313-1.646,1.479-1.526c0.5,0.049,1.012,0.005,1.52,0.005
		c14.638,0,29.276,0,43.915,0c7.318,0,14.639-0.096,21.951,0.025c7.819,0.132,15.634,0.46,23.302,2.277
		c16.466,3.896,28.351,13.652,36.224,28.449c4.403,8.279,6.846,17.189,7.921,26.479c1.921,16.634,0.418,32.97-4.503,48.959
		c-2.758,8.946-6.967,17.162-13.207,24.243c-7.563,8.587-17.099,13.687-28.239,15.922c-5.408,1.082-10.879,1.57-16.387,1.824
		C680.003,379.524,668.408,379.13,658.814,379.277z"/>
	<path fill="#FFFFFF" d="M818.563,379.277c-14.459,0-26.922,0.002-39.391-0.003c-3.053,0-2.6,0.225-2.64-2.71
		c-0.193-16.018,0.383-32.025,0.311-48.04c-0.008-1.635,0.038-1.664,1.707-1.667c7.608-0.015,15.217-0.015,22.831,0
		c1.753,0.003,1.795,0.034,1.787,1.84c-0.036,6.666-0.1,13.332-0.152,19.999c-0.003,0.363,0.011,0.725-0.028,1.086
		c-0.104,0.98,0.223,1.419,1.311,1.432c11.736,0.176,23.474,0.62,35.208,0.185c6.441-0.239,12.844-0.908,19.15-2.389
		c13.729-3.221,22.23-11.783,26.058-25.194c2.246-7.886,2.721-15.965,2.415-24.107c-0.229-6.167-0.967-12.269-2.823-18.189
		c-1.756-5.605-4.383-10.708-8.578-14.92c-5.53-5.551-12.439-8.005-20.015-9.008c-8.669-1.147-17.361-0.638-26.04-0.255
		c-7.822,0.344-15.639,0.562-23.461,0.236c-2.826-0.118-2.31-0.171-2.466,2.186c-0.29,4.414-0.007,8.839-0.161,13.255
		c-0.119,3.468,0.185,2.855-2.982,2.872c-7.175,0.034-14.352,0.014-21.526,0.007c-2.045-0.002-2.106-0.017-2.043-1.978
		c0.364-11.589,0.288-23.186,0.404-34.777c0.02-2.244-0.008-4.494,0.026-6.738c0.023-1.512,0.067-1.524,1.63-1.584
		c0.288-0.011,0.58,0,0.87,0c20.797-0.022,41.597-0.083,62.394-0.04c6.95,0.015,13.902,0.214,20.812,1.153
		c20.241,2.75,34.824,13.344,43.771,31.659c3.985,8.154,6.135,16.843,7.02,25.853c1.619,16.422,0.102,32.535-4.909,48.275
		c-2.231,7.012-5.428,13.576-9.783,19.542c-7.835,10.729-18.326,17.292-31.324,19.903c-5.265,1.057-10.592,1.568-15.951,1.818
		C840.19,379.529,828.378,379.138,818.563,379.277z"/>
	<path fill="#FFFFFF" d="M599.792,379.335c-3.109,0.105-6.278,0.283-9.447,0.31c-5.866,0.049-11.732,0.022-17.599,0.007
		c-2.315-0.006-2.041,0.322-2.973-1.967c-7.632-18.779-15.286-37.551-22.885-56.341c-8.005-19.799-15.79-39.683-23.527-59.587
		c-0.154-0.402-0.326-0.801-0.685-1.663c-8.529,20.153-16.807,39.982-25.12,59.845c0.977,0.471,1.778,0.297,2.543,0.299
		c10.509,0.013,21.016,0.007,31.523,0.011c2.723,0,2.119-0.107,2.944,1.945c2.857,7.122,5.685,14.256,8.511,21.389
		c0.42,1.061,0.877,2.119,1.097,3.511c-0.89,0-1.661,0-2.431,0c-17.753,0-35.507-0.009-53.262,0.009
		c-2.699,0.002-2.153-0.432-3.257,2.188c-4.023,9.539-8.02,19.089-11.959,28.663c-0.517,1.258-1.142,1.744-2.527,1.735
		c-7.536-0.069-15.072-0.035-22.611-0.035c-0.288,0-0.58-0.011-0.868-0.005c-0.807,0.007-1.046-0.382-0.742-1.101
		c0.591-1.401,1.204-2.792,1.813-4.186c13.244-30.319,26.474-60.644,39.742-90.956c7.229-16.517,14.501-33.011,21.788-49.501
		c1.505-3.4,0.658-2.746,4.217-2.766c6.666-0.038,13.333,0.045,19.999-0.051c1.667-0.023,2.531,0.402,3.221,2.03
		c5.964,14.06,12.041,28.077,18.083,42.106c11.569,26.86,23.137,53.726,34.708,80.586c3.094,7.181,6.205,14.354,9.289,21.537
		C599.626,377.927,600.114,378.471,599.792,379.335z"/>
	<path fill="#FFFFFF" d="M189.322,378.984c-2.525,0.105-4.908,0.272-7.292,0.277c-6.736,0.023-13.477-0.02-20.215-0.033
		c-1.75-0.007-1.765,0-2.458-1.695c-7.522-18.433-15.077-36.853-22.547-55.304c-8.175-20.196-16.157-40.471-23.974-60.807
		c-0.173-0.45-0.381-0.885-0.735-1.708c-8.849,20.033-16.893,40.009-25.212,59.872c0.926,0.486,1.732,0.293,2.502,0.293
		c10.579,0.015,21.158,0.002,31.737,0.019c2.295,0.001,1.966-0.335,2.898,2.021c2.873,7.27,5.783,14.526,8.645,21.803
		c0.36,0.914,0.878,1.818,0.785,3.009c-0.833,0-1.624,0-2.413,0c-17.754,0-35.506,0-53.26,0c-2.417,0-2.434-0.003-3.441,2.286
		c-4.094,9.274-7.82,18.697-11.549,28.122c-0.845,2.13-0.847,2.134-3.07,2.134c-7.318,0.002-14.638,0.005-21.957-0.009
		c-0.627-0.001-1.282,0.174-1.888-0.163c-0.165-0.729,0.269-1.276,0.522-1.854C50,346.056,63.59,314.859,77.226,283.686
		c7.34-16.781,14.751-33.532,22.161-50.284c1.316-2.975,0.563-2.578,3.909-2.589c6.811-0.023,13.624,0.038,20.433-0.043
		c1.538-0.018,2.271,0.482,2.88,1.903c12.822,29.948,25.686,59.877,38.57,89.8c7.788,18.084,15.625,36.149,23.431,54.23
		C188.892,377.359,189.338,377.965,189.322,378.984z"/>
	<path fill="#FFFFFF" d="M1064.969,378.967c-0.974,0.459-1.704,0.299-2.408,0.301c-8.191,0.011-16.378,0.009-24.565,0.009
		c-2.272,0-2.27-0.007-3.13-2.079c-14.838-35.7-28.996-71.671-43.133-107.652c-1.218-3.094-2.437-6.187-3.703-9.408
		c-0.861,0.5-1.016,1.309-1.314,1.983c-5.031,11.392-9.784,22.903-14.59,34.389c-3.019,7.211-6.087,14.405-9.131,21.609
		c-0.192,0.457-0.374,0.923-0.601,1.49c0.809,0.471,1.61,0.268,2.357,0.27c10.505,0.018,21.012,0.058,31.518-0.037
		c1.722-0.014,2.552,0.502,3.235,2.069c3.364,7.697,6.381,15.534,9.397,23.371c0.15,0.396,0.229,0.816,0.349,1.231
		c-0.854,0.39-1.655,0.208-2.43,0.208c-17.827,0.013-35.652,0.045-53.479-0.04c-1.844-0.009-2.654,0.647-3.347,2.219
		c-3.698,8.421-6.97,17.019-10.502,25.506c-0.473,1.135-1.021,2.245-1.425,3.403c-0.392,1.127-1.048,1.506-2.264,1.496
		c-7.099-0.062-14.202-0.029-21.305-0.029c-0.985,0-1.974,0-3.241,0c0.705-1.673,1.276-3.061,1.877-4.44
		c14.525-33.238,29.045-66.478,43.591-99.707c6.245-14.261,12.564-28.488,18.799-42.751c0.517-1.18,1.144-1.606,2.422-1.595
		c7.171,0.054,14.349,0.082,21.521-0.017c1.594-0.021,2.263,0.586,2.845,1.955c6.573,15.378,13.195,30.738,19.815,46.094
		c14.046,32.58,28.153,65.131,41.903,97.836C1064.336,377.374,1064.618,378.108,1064.969,378.967z"/>
	<path fill="#FFFFFF" d="M202.542,227.648c7.929,0,15.855,0,23.784,0c0.021,0.941,0.062,1.881,0.062,2.822
		c0.003,40.223,0,80.446,0.007,120.663c0,2.957-0.383,2.67,2.663,2.67c23.334,0.005,46.672,0.002,70.005,0.009
		c2.85,0,2.59-0.313,2.592,2.527c0.009,6.74,0.013,13.48-0.002,20.218c-0.007,3.076,0.335,2.708-2.614,2.712
		c-10.146,0.015-20.292,0.007-30.439,0.007c-21.231,0-42.467,0.002-63.7-0.003c-2.672,0-2.422,0.235-2.422-2.483
		c-0.004-49.063-0.004-98.128,0-147.19C202.482,228.95,202.522,228.299,202.542,227.648z"/>
	<path fill="#FFFFFF" d="M819.768,436.176c1.082-1.791,1.617-3.822,2.361-5.746c4.521-11.676,8.997-23.371,13.497-35.054
		c0.781-2.029,0.809-2.025,2.93-2.025c7.316-0.005,14.636-0.007,21.954,0c2.057,0.002,2.082,0.02,2.082,1.985
		c0.007,24.707,0.007,49.416,0,74.124c0,1.941-0.025,1.971-1.879,1.975c-5.221,0.015-10.435,0.018-15.653-0.002
		c-1.675-0.008-1.74-0.063-1.74-1.697c-0.011-10.291-0.083-20.578,0.038-30.867c0.051-4.195,1.073-8.314,1.588-12.475
		c0.362-2.924,0.805-5.842,1.215-8.787c-0.988-0.032-0.916,0.617-1.079,1.041c-2.026,5.268-4.055,10.535-6.051,15.818
		c-2.388,6.301-5.371,12.34-8.069,18.511c-0.868,1.991-1.838,3.938-2.655,5.952c-0.359,0.875-0.851,1.221-1.778,1.216
		c-4.566-0.025-9.131-0.051-13.696,0.015c-1.252,0.018-1.586-0.776-1.976-1.646c-2.038-4.557-4.024-9.144-6.127-13.672
		c-3.931-8.486-6.914-17.342-10.373-26.012c-0.184-0.45-0.214-0.988-0.894-1.273c-0.29,2.08,0.295,4.023,0.562,5.967
		c1.08,7.88,2.377,15.713,2.108,23.732c-0.237,7.096-0.047,14.202-0.047,21.303c0,0.434,0.011,0.868-0.004,1.303
		c-0.057,1.52-0.06,1.564-1.626,1.574c-4.063,0.023-8.116,0.01-12.177,0.01c-1.302,0-2.606-0.043-3.908,0.008
		c-1.075,0.046-1.666-0.291-1.554-1.466c0.038-0.432,0.004-0.87,0.004-1.304c0-24.203,0-48.404,0.001-72.607
		c0-2.958-0.241-2.721,2.665-2.721c7.028-0.005,14.057-0.018,21.085,0.002c3.182,0.009,2.578-0.39,3.673,2.5
		c4.939,13.062,9.858,26.135,14.776,39.204C819.178,435.462,819.236,435.91,819.768,436.176z"/>
	<path fill="#FFFFFF" d="M989.105,396.528c0-0.432-0.045-0.869,0-1.305c0.125-1.177-0.471-1.465-1.537-1.456
		c-3.19,0.044-6.377,0.019-9.568,0.019c-2.101,0-4.203,0.027-6.303-0.008c-0.927-0.02-1.345,0.345-1.287,1.276
		c0.034,0.508,0.009,1.016,0.009,1.521c0,6.378,0,12.755-0.009,19.134c0,0.533,0.116,1.106-0.273,1.758
		c-3.316-1.92-6.793-2.564-10.498-2.546c-8.642,0.038-15.13,3.815-19.694,11.032c-2.682,4.242-3.983,8.941-4.475,13.918
		c-0.779,7.971,0.597,15.45,5.045,22.195c7.475,11.321,22.359,12.382,31.13,4.664c0.425-0.373,0.896-0.697,1.592-1.225
		c0.392,1.533,0.716,2.783,1.026,4.043c0.442,1.875,0.433,1.887,2.409,1.896c3.261,0.007,6.522,0.007,9.783,0
		c2.964-0.009,2.646,0.226,2.646-2.728C989.105,444.65,989.105,420.59,989.105,396.528z M968.806,454.787
		c-3.769,2.449-11.207,1.131-13.4-4.002c-2.155-5.045-2.353-10.119,0.082-15.102c2.438-5.01,7.791-7.364,14.006-4.514
		c0.832,0.382,0.923,0.989,0.923,1.76c-0.017,3.25-0.01,6.514-0.01,9.766c0,3.114-0.07,6.225,0.038,9.342
		C970.482,453.402,969.875,454.1,968.806,454.787z"/>
	<path fill="#FFFFFF" d="M1184.4,417.473c1.192-0.463,2.048-0.818,2.924-1.135c9.793-3.531,22.196-0.631,28.385,9.056
		c2.178,3.413,3.474,7.134,3.478,11.251c0.007,11.007,0.052,22.016,0.065,33.025c0.001,1.729-0.042,1.758-1.892,1.766
		c-4.853,0.016-9.707,0.014-14.557,0c-1.896-0.004-1.918-0.031-1.922-1.922c-0.011-8.11-0.007-16.225-0.007-24.335
		c0-2.028,0.017-4.06-0.008-6.084c-0.076-6.3-5.088-9.317-10.416-9.124c-1.646,0.059-3.283,0.446-4.856,1.052
		c-0.902,0.347-1.274,0.843-1.202,1.772c0.04,0.502,0.008,1.008,0.008,1.52c0,11.442,0,22.885,0,34.326c0,0.511-0.029,1.018,0,1.521
		c0.056,0.929-0.361,1.305-1.282,1.282c-1.448-0.034-2.898-0.005-4.343-0.005c-3.766,0-7.536,0.018-11.3-0.014
		c-1.626-0.01-1.673-0.102-1.729-1.752c-0.015-0.432-0.004-0.869-0.004-1.304c0-23.827,0-47.655,0-71.483
		c0-3.366-0.235-3.105,2.995-3.105c4.418-0.005,8.836-0.002,13.255,0c2.479,0,2.411-0.194,2.411,2.318
		c-0.005,6.445,0,12.888,0,19.335C1184.4,416.014,1184.4,416.587,1184.4,417.473z"/>
	<path fill="#FFFFFF" d="M1101.326,436.74c-1.507-8.832-5.938-15.634-13.999-19.764c-6.794-3.486-14.013-3.887-21.342-2.146
		c-8.879,2.11-14.948,7.582-18.479,15.943c-1.987,4.691-2.61,9.611-2.303,14.668c0.35,5.682,2.09,10.898,5.371,15.59
		c6.824,9.729,19.787,13.053,30.395,10.273c5.981-1.57,10.401-5.545,14.549-9.867c0.718-0.732,0.247-1.086-0.279-1.546
		c-2.672-2.329-5.375-4.638-7.979-7.041c-0.809-0.741-1.262-0.585-1.958,0.093c-3.779,3.676-8.324,4.689-13.417,3.805
		c-4.105-0.725-7.084-3.523-7.686-7.451h2.564c10.716,0,21.444,0,32.159-0.007c2.031,0,2.085-0.081,2.357-1.956
		C1101.785,443.801,1101.921,440.277,1101.326,436.74z M1082.489,436.823c-5.627,0.011-11.262,0.021-16.897,0
		c-1.838-0.009-1.956-0.163-1.294-1.817c1.378-3.5,4.167-5.213,7.699-5.916c4.186-0.836,8.632,1.048,10.681,4.512
		c0.553,0.934,0.978,1.909,0.906,3.115C1083.196,436.751,1082.843,436.823,1082.489,436.823z"/>
	<path fill="#FFFFFF" d="M927.757,434.478c-2.218-8.878-7.445-15.245-16.06-18.606c-6.258-2.445-12.69-2.547-19.178-0.961
		c-6.869,1.693-12.212,5.553-15.926,11.551c-4.276,6.884-5.41,14.429-4.077,22.34c2.892,17.115,17.366,25.41,33.156,23.012
		c7.238-1.099,12.456-5.723,17.177-10.906c-0.345-0.846-0.986-1.225-1.511-1.703c-2.329-2.066-4.722-4.063-7.005-6.18
		c-0.888-0.833-1.412-0.799-2.282,0.026c-3.743,3.567-8.244,4.575-13.255,3.694c-4.05-0.707-7.02-3.442-7.779-7.447h2.544
		c10.727,0,21.445,0,32.161-0.008c2.063,0,2.136-0.053,2.438-1.885C928.864,443.076,928.828,438.745,927.757,434.478z
		 M900.189,436.834c-2.743-0.011-5.48,0.019-8.224-0.02c-1.142-0.02-1.279-0.25-0.98-1.313c0.508-1.803,1.603-3.209,3.053-4.35
		c3.679-2.887,9.38-2.953,13.145-0.189c1.896,1.397,2.974,3.263,3.429,5.869h-10.422V436.834z"/>
	<path fill="#FFFFFF" d="M1032.554,441.244c0,9.13,0,18.26,0,27.389c0,0.51-0.025,1.02,0,1.523c0.043,0.941-0.448,1.295-1.327,1.277
		c-0.508-0.011-1.018,0.008-1.521,0.008c-4.929,0-9.855,0.005-14.783-0.006c-2.259-0.002-2.273-0.02-2.273-2.291
		c-0.007-18.408,0.002-36.812-0.007-55.211c-0.002-3.242,0.346-2.889-2.904-2.9c-4.276-0.02-8.548,0.001-12.825-0.008
		c-2.065-0.004-2.085-0.02-2.089-1.973c-0.015-4.422-0.018-8.841,0-13.259c0.009-1.961,0.038-2.007,1.9-2.007
		c17.315-0.009,34.634-0.009,51.949,0c1.787,0,1.816,0.038,1.82,1.816c0.02,4.567,0.02,9.129,0,13.692
		c-0.009,1.675-0.044,1.715-1.698,1.724c-4.783,0.021-9.563-0.002-14.347,0.015c-1.866,0.005-1.892,0.029-1.893,1.952
		C1032.55,422.406,1032.554,431.826,1032.554,441.244z"/>
	<path fill="#FFFFFF" d="M1158.771,424.389c-3.337,3.412-6.533,6.656-9.702,9.93c-0.548,0.565-0.928,0.414-1.459-0.002
		c-0.963-0.766-1.943-1.525-2.995-2.156c-4.585-2.752-11.872-2.399-15.429,1.717c-1.784,2.063-2.616,4.502-2.924,7.119
		c-0.582,4.964,0.513,9.426,4.599,12.654c4.191,3.313,9.901,3.156,14.76-0.24c0.946-0.663,1.826-1.428,2.671-2.219
		c0.589-0.553,1.035-0.619,1.646-0.037c3.029,2.91,6.075,5.805,9.137,8.682c0.607,0.57,0.587,1.07,0.076,1.676
		c-4.876,5.796-10.68,9.886-18.521,10.543c-4.086,0.344-8.098,0.156-12.044-0.891c-10.982-2.918-17.788-10.065-20.193-21.049
		c-1.927-8.795-0.451-17.162,5.108-24.502c4.663-6.152,11.046-9.396,18.567-10.582c3.75-0.587,7.496-0.565,11.233,0.118
		c5.011,0.913,9.137,3.517,12.898,6.8C1157.012,422.66,1157.768,423.438,1158.771,424.389z"/>
	<path fill="#FFFFFF" d="M1127.342,294.557c-0.535-2.733-2.085-4.592-4.875-5.219c-3.866-0.87-7.782-0.771-11.642-0.144
		c-3.019,0.488-4.331,2.074-4.812,5.1c-0.471,2.872-0.364,5.779-0.146,8.66c0.229,2.935,1.624,4.321,4.516,5.092
		c2.28,0.599,4.602,0.47,6.91,0.479c2.484,0.011,4.902-0.205,7.104-2.516c0,2.892,0.074,5.21-0.019,7.52
		c-0.093,2.454-1.188,3.76-3.436,4.029c-2.879,0.347-5.777,0.365-8.661,0c-2.083-0.253-2.888-1.178-3.151-3.243
		c-0.244-1.885-0.244-1.838-2.039-1.838c-0.995,0-1.396,0.27-1.421,1.349c-0.147,4.313,1.793,6.769,6.076,7.188
		c3.173,0.308,6.379,0.308,9.55,0c3.849-0.382,5.625-2.223,6.18-6.08c0.125-0.932,0.205-1.876,0.214-2.808
		c0.021-4.564-0.009-9.122,0.021-13.687C1127.723,297.121,1127.587,295.827,1127.342,294.557z M1124.359,301.345
		c-0.106,2.292-0.984,3.279-3.195,3.685c-3.09,0.553-6.194,0.508-9.276-0.036c-1.731-0.297-2.572-1.142-2.683-2.909
		c-0.116-2.165-0.124-4.348,0.011-6.505c0.125-1.956,1.015-2.833,2.998-3.105c1.433-0.2,2.892-0.19,4.012-0.254
		c1.624,0.082,2.935,0.063,4.215,0.245c2.591,0.352,3.815,1.721,3.921,4.322C1124.433,298.308,1124.441,299.831,1124.359,301.345z"
		/>
	<path fill="#FFFFFF" d="M1136.078,320.604c4.897-9.327,9.72-18.507,14.544-27.68c-0.767-0.618-1.443-0.419-2.054-0.424
		c-4.634-0.018-9.268-0.002-13.901-0.022c-0.544-0.002-1.345,0.261-1.548-0.402c-0.25-0.803-0.339-1.757,0.072-2.534
		c0.305-0.58,1.052-0.315,1.603-0.319c4.273-0.018,8.542-0.011,12.817-0.009c1.811,0,3.62,0.045,5.427-0.013
		c1.045-0.036,1.386,0.348,1.374,1.383c-0.011,1.325-0.203,2.52-0.837,3.738c-4.168,8.023-8.324,16.054-12.335,24.163
		c-0.875,1.773-1.893,2.574-3.809,2.229C1137.084,320.649,1136.723,320.651,1136.078,320.604z"/>
	<path fill="#FFFFFF" d="M1169.8,292.779c-2.29,2.418-4.412,4.659-6.478,6.838c-0.609-0.123-0.866-0.491-1.162-0.805
		c-1.065-1.135-1.08-1.149-0.081-2.231c1.914-2.07,3.942-4.042,5.748-6.204c1.465-1.754,3.287-1.03,5.009-1.079
		c0.415-0.013,0.55,0.399,0.561,0.785c0.015,0.506,0.018,1.012,0.018,1.519c0,8.894,0,17.789,0,26.681
		c0,0.214,0.019,0.435-0.003,0.65c-0.057,0.555,0.255,1.329-0.323,1.606c-0.777,0.37-1.694,0.225-2.556,0.078
		c-0.339-0.057-0.425-0.359-0.436-0.655c-0.02-0.576-0.023-1.155-0.023-1.733c-0.003-7.665,0.004-15.329-0.009-22.994
		C1170.061,294.53,1170.204,293.807,1169.8,292.779z"/>
	<path fill="#FFFFFF" d="M1091.654,292.875c-2.17,2.292-4.338,4.581-6.498,6.865c-2.248-2-2.25-2.001-0.389-3.977
		c1.688-1.79,3.372-3.584,5.067-5.37c0.957-1.008,3.774-1.623,4.987-1.108c0.299,0.125,0.451,0.337,0.467,0.644
		c0.024,0.506,0.035,1.012,0.035,1.518c0.005,9.048,0.003,18.097,0.003,27.145c0,0.361-0.025,0.725-0.003,1.084
		c0.036,0.732-0.287,1.07-1.026,1.028c-0.434-0.023-0.87-0.015-1.306-0.004c-0.648,0.021-0.896-0.317-0.89-0.93
		c0.011-0.506-0.006-1.012-0.006-1.519c0-7.674,0-15.346,0-23.019c0-0.711,0-1.421,0-2.13
		C1091.952,293.026,1091.802,292.95,1091.654,292.875z"/>
</g>
</svg>
