<?xml version="1.0" encoding="utf-8"?>
<!-- Generator: Adobe Illustrator 16.0.0, SVG Export Plug-In . SVG Version: 6.00 Build 0)  -->
<!DOCTYPE svg PUBLIC "-//W3C//DTD SVG 1.1//EN" "http://www.w3.org/Graphics/SVG/1.1/DTD/svg11.dtd">
<svg version="1.1" id="Layer_1" xmlns="http://www.w3.org/2000/svg" xmlns:xlink="http://www.w3.org/1999/xlink" x="0px" y="0px"
	 width="1280px" height="800px" viewBox="0 0 1280 800" enable-background="new 0 0 1280 800" xml:space="preserve">
<g>
	<path display="none" fill-rule="evenodd" clip-rule="evenodd" fill="#FDFDFD" d="M1294.002,296.64c0,100.16,0,200.32,0,300.481
		c-435.84,0-871.681,0-1307.521,0c0-130.881,0-261.76,0-392.641c61.6,0,123.2,0,184.8,0c0.207,0.247,0.375,0.518,0.505,0.812
		c0.45,1.486,0.275,3.017,0.275,4.529c0.01,52.383,0.008,104.766,0.008,157.148c0,4.721,0.003,4.722,4.703,4.723
		c32.949,0,65.898,0.001,98.848,0c4.307,0,4.311-0.006,4.313-4.383c0.002-6.238,0.013-12.476-0.005-18.714
		c-0.01-3.5-0.145-3.64-3.654-3.641c-24.472-0.009-48.944-0.003-73.416-0.005c-5.915,0-5.963-0.05-5.964-6.054
		c-0.001-43.106-0.002-86.212,0.007-129.318c0-1.431-0.161-2.88,0.271-4.288c0.13-0.294,0.301-0.563,0.51-0.809
		c365.441,0,730.881,0,1096.322,0c0,24.81,0,49.605,0,74.4c-1.452-0.337-1.111-1.565-1.166-2.51
		c-0.671-11.556-3.268-22.618-8.503-32.985c-9.549-18.91-24.96-29.67-45.812-32.852c-7.133-1.088-14.331-1.396-21.51-1.442
		c-22.958-0.146-45.918-0.055-68.877-0.054c-0.879,0-1.759,0-2.639,0.039c-1.251,0.055-1.905,0.663-1.942,1.936
		c-0.019,0.64-0.034,1.279-0.034,1.919c-0.001,14.64-0.004,29.279,0.001,43.918c0.001,3.509,0.044,3.549,3.667,3.553
		c6.88,0.007,13.76,0.008,20.639,0c3.514-0.004,3.859-0.308,3.468-3.914c-0.571-5.271-0.609-10.524,0.024-15.79
		c0.398-3.305,0.83-3.792,4.21-3.8c14.079-0.034,28.158-0.012,42.237-0.013c4.804-0.001,9.591,0.333,14.34,1
		c13.09,1.84,22.092,9.15,27.391,21.07c3.181,7.155,4.571,14.731,5.106,22.57c0.666,9.76-0.136,19.333-2.465,28.774
		c-4.075,16.518-14.712,26.263-31.242,29.801c-7.699,1.648-15.502,2.221-23.345,2.358c-5.197,0.092-10.402-0.1-15.598,0.048
		c-6.167,0.175-12.292-0.663-18.453-0.558c-2.502,0.042-2.942-0.604-3.089-3.208c-0.32-5.686,0.522-11.336,0.477-17.012
		c-0.029-3.545-0.168-3.72-3.589-3.728c-7.119-0.014-14.239-0.025-21.358,0.006c-2.642,0.012-2.932,0.262-2.886,2.892
		c0.275,15.596-0.828,31.176-0.498,46.771c0.016,0.72,0.019,1.44,0.018,2.159c-0.003,1.294,0.636,1.897,1.911,1.911
		c0.64,0.006,1.28,0.022,1.92,0.022c22.639,0.001,45.279,0.166,67.915-0.085c8.367-0.093,16.774-0.419,25.08-1.851
		c19.925-3.436,34.493-14.101,43.604-32.158c6.072-12.034,9.237-24.825,9.834-38.277
		C1292.883,298.396,1292.424,297.046,1294.002,296.64z"/>
	<path fill-rule="evenodd" clip-rule="evenodd" fill="#00B1EA" d="M1197.627,359.14c-0.537,1.117-0.295,2.322-0.382,3.488
		c-0.951,12.764-4.127,24.851-11.118,35.713c-7.391,11.481-17.896,18.439-31.266,21.093c-5.034,1-10.125,1.507-15.252,1.648
		c-21.743,0.601-43.489,0.128-65.232,0.271c-1.674,0.012-1.669-0.021-1.677-1.774c-0.056-13.928,0.262-27.853,0.392-41.778
		c0.016-1.69,0.033-1.708,1.758-1.711c6.769-0.007,13.535-0.007,20.303,0c1.771,0.002,1.837,0.021,1.827,1.884
		c-0.025,5.188-0.119,10.376-0.17,15.564c-0.027,2.65-0.029,2.334,2.329,2.369c9.917,0.152,19.832,0.528,29.751,0.225
		c6.307-0.193,12.585-0.728,18.723-2.331c11.864-3.098,19.734-10.398,22.907-22.321c3.3-12.399,3.636-24.897,0.302-37.369
		c-1.318-4.934-3.52-9.47-6.845-13.403c-4.542-5.372-10.391-8.313-17.297-9.267c-4.304-0.594-8.635-0.703-12.971-0.696
		c-11.234,0.018-22.47,0.038-33.704,0.057c-0.197,0-0.393-0.001-0.59,0c-1.909,0.021-1.871,0.023-2.006,1.927
		c-0.303,4.267-0.226,8.531-0.041,12.798c0.04,0.918,0.025,1.84,0.008,2.759c-0.032,1.709-0.042,1.728-1.772,1.729
		c-6.898,0.008-13.798,0.009-20.696-0.001c-1.493-0.002-1.525-0.028-1.522-1.513c0.034-13.402,0.076-26.805,0.127-40.208
		c0.005-1.487,0.039-1.522,1.57-1.53c3.744-0.021,7.49-0.004,11.236-0.008c15.963-0.018,31.928-0.094,47.893-0.032
		c7.352,0.029,14.717,0.225,21.943,1.823c14.455,3.197,25.436,11.178,32.786,24.055c3.919,6.866,6.16,14.323,7.483,22.077
		c0.486,2.849,0.876,5.709,0.873,8.61c-0.002,0.432-0.13,0.937,0.33,1.264C1197.627,349.416,1197.627,354.278,1197.627,359.14z"/>
	<path fill-rule="evenodd" clip-rule="evenodd" fill="#7FD7F4" d="M297.175,283.445c-0.021,0.147-0.041,0.295-0.061,0.443
		c-0.699,0.641-1.578,0.577-2.422,0.58c-5.572,0.021-11.145,0.021-16.718,0c-0.843-0.003-1.723,0.061-2.422-0.581
		c-0.021-0.148-0.041-0.295-0.061-0.443C282.719,283.445,289.947,283.445,297.175,283.445z"/>
	<path fill-rule="evenodd" clip-rule="evenodd" fill="#00B1EA" d="M474.034,352.231c0.812,0.252,1.636,0.47,2.434,0.759
		c6.269,2.271,10.106,6.845,12.252,13.001c1.309,3.755,1.878,7.657,1.943,11.607c0.096,5.714,0.083,11.431,0.005,17.146
		c-0.04,2.95-0.308,5.893-1.023,8.782c-1.827,7.382-6.336,12.375-13.355,15.177c-4.449,1.776-9.12,2.448-13.857,2.667
		c-5.778,0.268-11.561,0.034-17.341,0.025c-21.024-0.035-42.048-0.027-63.072-0.036c-3.35,0-3.325,0-3.301-3.286
		c0.07-9.46,0.114-18.921,0.179-28.381c0.009-1.313,0.061-2.626,0.127-3.938c0.068-1.347,0.086-1.359,1.516-1.383
		c1.183-0.02,2.365-0.004,3.548-0.004c5.584,0,11.169-0.006,16.753,0.003c1.623,0.003,1.643,0.022,1.652,1.592
		c0.016,2.956-0.002,5.914,0.008,8.869c0.005,1.742,0.018,1.751,1.692,1.8c5.908,0.168,11.815,0.314,17.729,0.261
		c8.999-0.082,17.997,0.02,26.993,0.34c3.933,0.14,7.878-0.02,11.788-0.583c0.645-0.093,1.282-0.277,1.906-0.473
		c2.665-0.834,4.334-2.535,4.893-5.357c1.026-5.188,1.353-10.411,0.973-15.677c-0.15-2.092-0.337-4.178-0.86-6.231
		c-0.665-2.606-2.298-4.212-4.795-5.016c-1.38-0.443-2.804-0.695-4.251-0.772c-1.114-0.06-2.232-0.083-3.349-0.083
		c-16.688-0.005-33.375-0.003-50.063-0.003c-0.132,0-0.263,0-0.394,0c-2.213,0.008-2.213,0.008-2.227,2.295
		c-0.011,1.612-0.011,1.639-1.648,1.642c-6.767,0.011-13.535,0.011-20.302-0.001c-1.463-0.003-1.53-0.034-1.539-1.552
		c-0.017-3.284,0.051-6.568,0.069-9.852c0.039-7.161,0.066-14.322,0.104-21.482c0.009-1.701,0.021-1.72,1.733-1.722
		c6.768-0.008,13.535-0.008,20.302,0c1.667,0.002,1.689,0.024,1.675,1.779c-0.013,1.576-0.102,3.151-0.126,4.728
		c-0.025,1.624-0.008,1.652,1.588,1.671c5.715,0.066,11.431,0.147,17.146,0.159c11.497,0.024,22.994,0.011,34.491,0.003
		c2.035-0.001,4.069-0.013,6.07-0.502c3.487-0.854,5.265-2.778,5.827-6.338c0.205-1.301,0.323-2.603,0.317-3.921
		c-0.014-3.482-0.022-6.964,0.002-10.446c0.01-1.453-0.164-2.883-0.366-4.313c-0.363-2.562-1.752-4.325-4.144-5.314
		c-2.526-1.046-5.193-1.417-7.885-1.534c-4.662-0.204-9.324-0.121-13.983,0.201c-1.44,0.099-2.889,0.089-4.334,0.09
		c-10.775,0.007-21.55,0.003-32.324,0.005c-2.18,0-2.191,0.005-2.262,2.131c-0.033,0.984-0.048,1.973-0.002,2.956
		c0.042,0.905-0.25,1.389-1.228,1.259c-0.129-0.017-0.262-0.001-0.394-0.001c-6.767,0-13.534,0.006-20.301-0.005
		c-1.511-0.002-1.546-0.03-1.549-1.509c-0.011-8.41-0.012-16.819,0.002-25.229c0.002-1.419,0.042-1.425,1.417-1.474
		c0.525-0.019,1.051-0.005,1.577-0.005c26.477,0,52.955-0.015,79.432,0.018c3.607,0.004,7.221,0.08,10.811,0.57
		c1.37,0.188,2.717,0.452,4.053,0.792c6.299,1.603,10.215,5.623,12.009,11.814c1.145,3.951,1.39,8.021,1.47,12.086
		c0.117,5.845,0.082,11.693,0.041,17.54c-0.018,2.43-0.299,4.853-0.874,7.221c-1.677,6.916-5.91,11.574-12.553,14.067
		c-0.957,0.359-1.924,0.689-2.887,1.032C473.992,352.008,474.013,352.12,474.034,352.231z"/>
	<path fill-rule="evenodd" clip-rule="evenodd" fill="#939598" d="M687.729,540.387c1.145-1.15,1.969-2.576,2.919-3.896
		c13.037-18.132,26.062-36.272,39.059-54.432c0.762-1.063,1.57-1.51,2.917-1.506c18.463,0.048,36.926,0.031,55.389,0.031
		c0.328,0,0.657,0.017,0.986,0.005c0.639-0.019,0.993,0.237,0.969,0.92c-0.013,0.395,0.008,0.789,0.008,1.182
		c0,6.702,0,13.405,0,20.107c0,0.393-0.014,0.787-0.008,1.182c0.012,0.666-0.325,0.945-0.972,0.931
		c-0.524-0.011-1.051,0.008-1.577,0.008c-10.578,0-21.156,0.02-31.735-0.025c-1.308-0.005-2.14,0.357-2.921,1.47
		c-12.977,18.494-26.002,36.955-39.014,55.426c-10.099,14.336-20.189,28.678-30.287,43.016c-0.111,0.157-0.262,0.284-0.396,0.429
		c-0.18-0.222,0.066,0.083-0.185,0.003c-0.058-0.018-0.125-0.072-0.146-0.127c-23.503-58.663-47.001-117.329-70.495-175.996
		c-0.117-0.291-0.31-0.58-0.183-0.955c0.395-0.453,0.954-0.306,1.456-0.307c7.951-0.01,15.901,0.021,23.851-0.035
		c1.2-0.01,1.744,0.45,2.185,1.48c5.062,11.826,10.154,23.641,15.245,35.455c4.259,9.885,8.529,19.767,12.79,29.65
		c5.195,12.056,10.387,24.112,15.581,36.169c1.271,2.953,2.546,5.905,3.818,8.86C687.138,539.79,687.256,540.173,687.729,540.387z"
		/>
	<path fill-rule="evenodd" clip-rule="evenodd" fill="#00B1EA" d="M689.225,421.359c-13.047,0-24.281,0-35.516,0
		c-0.46,0-0.924-0.041-1.379,0.008c-0.977,0.104-1.244-0.367-1.24-1.269c0.014-2.89-0.057-5.779-0.043-8.67
		c0.057-12.019,0.131-24.038,0.204-36.057c0.009-1.506,0.024-1.537,1.524-1.54c6.964-0.012,13.929-0.013,20.892,0.001
		c1.482,0.003,1.515,0.04,1.517,1.569c0.014,6.242,0.006,12.483,0.006,18.725c0,1.681-0.16,1.737,1.672,1.792
		c9.915,0.297,19.836,0.517,29.751,0.199c7.356-0.238,14.673-0.926,21.748-3.202c11.325-3.642,18.173-11.457,20.885-22.86
		c2.676-11.255,3.019-22.625,0.501-33.975c-1.389-6.252-3.988-11.94-8.555-16.589c-4.506-4.588-10.092-6.971-16.322-8.054
		c-5.852-1.018-11.755-1.019-17.668-0.891c-8.93,0.193-17.85,0.835-26.788,0.542c-1.183-0.039-2.366-0.046-3.546-0.129
		c-0.842-0.059-1.188,0.253-1.188,1.104c-0.001,1.708-0.083,3.415-0.09,5.123c-0.009,2.957,0.022,5.913,0.015,8.87
		c-0.005,1.535-0.027,1.566-1.478,1.568c-7.03,0.012-14.06,0.013-21.09-0.001c-1.354-0.003-1.388-0.042-1.39-1.456
		c-0.02-10.182-0.027-20.363,0.205-30.543c0.057-2.495,0.066-4.993,0.02-7.489c-0.018-1.01,0.283-1.493,1.342-1.385
		c0.455,0.045,0.919,0.005,1.379,0.005c13.271,0,26.543,0,39.814,0c6.635,0,13.271-0.088,19.902,0.024
		c7.091,0.12,14.175,0.417,21.126,2.063c14.929,3.533,25.704,12.378,32.841,25.794c3.992,7.507,6.208,15.582,7.18,24.007
		c1.741,15.08,0.379,29.891-4.084,44.386c-2.498,8.113-6.314,15.562-11.971,21.981c-6.859,7.786-15.502,12.408-25.604,14.433
		c-4.902,0.983-9.863,1.425-14.856,1.655C708.434,421.584,697.922,421.227,689.225,421.359z"/>
	<path fill-rule="evenodd" clip-rule="evenodd" fill="#00B1EA" d="M834.057,421.359c-13.109,0-24.409,0.004-35.711-0.001
		c-2.768-0.002-2.359,0.203-2.392-2.457c-0.179-14.521,0.345-29.036,0.28-43.555c-0.006-1.483,0.034-1.512,1.547-1.514
		c6.897-0.011,13.797-0.012,20.697,0c1.593,0.003,1.629,0.032,1.621,1.67c-0.03,6.044-0.088,12.087-0.136,18.131
		c-0.004,0.329,0.009,0.659-0.026,0.985c-0.093,0.89,0.202,1.287,1.189,1.301c10.641,0.157,21.28,0.562,31.921,0.166
		c5.838-0.218,11.642-0.823,17.362-2.166c12.447-2.921,20.155-10.684,23.623-22.842c2.039-7.149,2.469-14.475,2.193-21.857
		c-0.209-5.591-0.878-11.123-2.561-16.49c-1.593-5.083-3.974-9.709-7.777-13.527c-5.015-5.034-11.279-7.259-18.147-8.167
		c-7.859-1.04-15.74-0.579-23.609-0.232c-7.092,0.313-14.178,0.509-21.271,0.215c-2.564-0.106-2.093-0.155-2.234,1.982
		c-0.263,4.003-0.007,8.015-0.147,12.019c-0.11,3.142,0.167,2.587-2.705,2.601c-6.505,0.031-13.01,0.013-19.515,0.008
		c-1.855-0.002-1.909-0.015-1.853-1.793c0.332-10.507,0.262-21.02,0.365-31.529c0.02-2.036-0.006-4.074,0.026-6.11
		c0.021-1.372,0.061-1.384,1.476-1.438c0.263-0.01,0.526-0.001,0.789-0.001c18.855-0.019,37.713-0.076,56.57-0.036
		c6.301,0.013,12.604,0.194,18.868,1.045c18.352,2.493,31.57,12.097,39.686,28.703c3.612,7.392,5.561,15.271,6.364,23.439
		c1.468,14.888,0.09,29.498-4.452,43.769c-2.022,6.357-4.92,12.308-8.868,17.717c-7.104,9.729-16.615,15.68-28.4,18.044
		c-4.772,0.958-9.601,1.423-14.461,1.651C853.664,421.591,842.955,421.234,834.057,421.359z"/>
	<path fill-rule="evenodd" clip-rule="evenodd" fill="#00B1EA" d="M635.711,421.413c-2.82,0.096-5.692,0.256-8.565,0.28
		c-5.318,0.046-10.637,0.021-15.957,0.008c-2.098-0.005-1.849,0.294-2.693-1.783c-6.919-17.025-13.857-34.043-20.747-51.08
		c-7.259-17.949-14.316-35.979-21.331-54.025c-0.141-0.364-0.297-0.724-0.62-1.505c-7.734,18.27-15.237,36.248-22.775,54.256
		c0.886,0.428,1.612,0.271,2.307,0.272c9.526,0.013,19.053,0.007,28.579,0.01c2.47,0,1.923-0.098,2.67,1.764
		c2.59,6.457,5.154,12.924,7.716,19.392c0.382,0.962,0.796,1.922,0.995,3.184c-0.809,0-1.507,0-2.205,0
		c-16.096,0-32.192-0.007-48.289,0.007c-2.446,0.002-1.951-0.391-2.953,1.983c-3.647,8.649-7.272,17.308-10.842,25.988
		c-0.469,1.141-1.037,1.58-2.292,1.57c-6.832-0.061-13.665-0.029-20.498-0.029c-0.263,0-0.526-0.009-0.788-0.005
		c-0.733,0.008-0.95-0.347-0.675-0.997c0.538-1.27,1.093-2.531,1.645-3.794c12.008-27.49,24.003-54.983,36.031-82.464
		c6.554-14.974,13.147-29.929,19.755-44.878c1.363-3.083,0.596-2.488,3.822-2.508c6.044-0.036,12.089,0.041,18.132-0.046
		c1.513-0.021,2.295,0.363,2.922,1.84c5.408,12.748,10.917,25.455,16.394,38.174c10.489,24.354,20.977,48.71,31.468,73.063
		c2.805,6.51,5.626,13.013,8.422,19.526C635.563,420.138,636.003,420.63,635.711,421.413z"/>
	<path fill-rule="evenodd" clip-rule="evenodd" fill="#00B1EA" d="M263.565,421.097c-2.29,0.091-4.45,0.243-6.611,0.25
		c-6.109,0.021-12.218-0.018-18.327-0.032c-1.587-0.005-1.601,0.002-2.229-1.535c-6.819-16.712-13.67-33.41-20.441-50.14
		c-7.411-18.312-14.648-36.692-21.735-55.131c-0.157-0.407-0.345-0.801-0.667-1.546c-8.023,18.162-15.315,36.271-22.858,54.28
		c0.84,0.442,1.57,0.267,2.269,0.267c9.591,0.014,19.183,0.002,28.774,0.015c2.081,0.002,1.783-0.301,2.626,1.834
		c2.604,6.591,5.243,13.17,7.838,19.766c0.327,0.831,0.795,1.65,0.712,2.731c-0.756,0-1.473,0-2.189,0c-16.096,0-32.191,0-48.286,0
		c-2.192,0-2.206-0.004-3.122,2.071c-3.71,8.409-7.089,16.954-10.47,25.498c-0.765,1.932-0.768,1.935-2.784,1.935
		c-6.635,0.002-13.271,0.005-19.906-0.008c-0.568-0.001-1.164,0.159-1.712-0.149c-0.149-0.657,0.244-1.154,0.473-1.679
		c12.33-28.28,24.651-56.562,37.015-84.826c6.655-15.214,13.373-30.402,20.091-45.588c1.193-2.698,0.51-2.338,3.545-2.348
		c6.175-0.019,12.352,0.037,18.525-0.038c1.396-0.017,2.061,0.437,2.612,1.725c11.625,27.152,23.288,54.288,34.969,81.416
		c7.061,16.398,14.167,32.776,21.243,49.168C263.175,419.621,263.578,420.17,263.565,421.097z"/>
	<path fill-rule="evenodd" clip-rule="evenodd" fill="#00B1EA" d="M1057.456,421.079c-0.883,0.416-1.544,0.272-2.184,0.273
		c-7.424,0.012-14.849,0.008-22.272,0.007c-2.059,0-2.055-0.005-2.836-1.883c-13.453-32.368-26.289-64.981-39.108-97.602
		c-1.104-2.805-2.207-5.61-3.357-8.53c-0.781,0.453-0.921,1.185-1.192,1.798c-4.561,10.329-8.867,20.765-13.228,31.179
		c-2.737,6.539-5.519,13.06-8.277,19.59c-0.175,0.416-0.339,0.837-0.544,1.351c0.732,0.428,1.459,0.245,2.133,0.246
		c9.526,0.015,19.053,0.052,28.579-0.032c1.559-0.014,2.313,0.457,2.933,1.874c3.049,6.981,5.786,14.084,8.521,21.19
		c0.138,0.357,0.208,0.739,0.313,1.114c-0.773,0.356-1.5,0.191-2.201,0.191c-16.162,0.011-32.324,0.04-48.486-0.037
		c-1.672-0.008-2.404,0.584-3.033,2.013c-3.354,7.635-6.32,15.428-9.522,23.124c-0.429,1.03-0.926,2.036-1.292,3.087
		c-0.354,1.023-0.949,1.362-2.05,1.354c-6.438-0.055-12.877-0.027-19.315-0.027c-0.894,0-1.789,0-2.939,0
		c0.639-1.516,1.155-2.774,1.701-4.022c13.17-30.135,26.334-60.272,39.521-90.399c5.661-12.929,11.392-25.827,17.043-38.759
		c0.469-1.071,1.039-1.455,2.196-1.446c6.503,0.049,13.008,0.074,19.512-0.015c1.446-0.02,2.05,0.531,2.581,1.772
		c5.958,13.943,11.961,27.867,17.963,41.791c12.736,29.536,25.524,59.049,37.992,88.699
		C1056.882,419.636,1057.14,420.299,1057.456,421.079z"/>
	<path fill-rule="evenodd" clip-rule="evenodd" fill="#00B1EA" d="M275.552,283.888c7.187,0,14.374,0,21.562,0
		c0.02,0.853,0.056,1.706,0.056,2.559c0.003,36.467,0,72.934,0.007,109.399c0,2.678-0.346,2.418,2.414,2.419
		c21.157,0.006,42.314,0.001,63.471,0.008c2.583,0,2.347-0.284,2.35,2.291c0.008,6.111,0.013,12.221-0.002,18.331
		c-0.007,2.792,0.305,2.455-2.369,2.459c-9.199,0.014-18.398,0.005-27.597,0.005c-19.251,0-38.503,0.002-57.755-0.001
		c-2.423-0.001-2.194,0.213-2.194-2.252c-0.003-44.482-0.003-88.965,0-133.447C275.496,285.068,275.533,284.479,275.552,283.888z"/>
	<path fill-rule="evenodd" clip-rule="evenodd" fill="#939598" d="M835.148,472.947c0.982-1.625,1.465-3.464,2.142-5.211
		c4.099-10.586,8.156-21.187,12.237-31.778c0.709-1.84,0.732-1.839,2.656-1.839c6.635-0.003,13.271-0.006,19.906,0.002
		c1.865,0.002,1.887,0.018,1.887,1.799c0.005,22.401,0.006,44.804,0,67.206c0,1.759-0.022,1.782-1.704,1.787
		c-4.73,0.013-9.46,0.017-14.19-0.003c-1.52-0.005-1.577-0.056-1.578-1.537c-0.012-9.329-0.076-18.658,0.035-27.986
		c0.045-3.802,0.971-7.536,1.438-11.308c0.331-2.653,0.73-5.297,1.103-7.97c-0.896-0.027-0.831,0.562-0.979,0.945
		c-1.836,4.777-3.674,9.554-5.486,14.34c-2.164,5.714-4.869,11.191-7.315,16.782c-0.787,1.804-1.665,3.571-2.408,5.394
		c-0.325,0.796-0.77,1.111-1.611,1.106c-4.14-0.023-8.278-0.046-12.417,0.012c-1.136,0.016-1.438-0.704-1.792-1.492
		c-1.848-4.134-3.65-8.289-5.555-12.396c-3.563-7.692-6.267-15.723-9.405-23.582c-0.164-0.409-0.194-0.898-0.809-1.153
		c-0.264,1.884,0.268,3.646,0.51,5.409c0.978,7.144,2.154,14.245,1.911,21.517c-0.217,6.432-0.045,12.874-0.045,19.313
		c0,0.393,0.011,0.787-0.004,1.182c-0.05,1.378-0.053,1.417-1.474,1.425c-3.681,0.022-7.358,0.008-11.037,0.008
		c-1.183,0-2.367-0.038-3.547,0.01c-0.974,0.04-1.51-0.267-1.408-1.331c0.037-0.39,0.003-0.788,0.003-1.181
		c0-21.944,0-43.886,0.002-65.828c0-2.682-0.217-2.467,2.416-2.469c6.373-0.005,12.745-0.014,19.116,0.004
		c2.885,0.008,2.338-0.354,3.329,2.263c4.48,11.844,8.938,23.697,13.399,35.548C834.613,472.299,834.667,472.706,835.148,472.947z"
		/>
	<path fill-rule="evenodd" clip-rule="evenodd" fill="#939598" d="M988.678,437.001c0-0.394-0.041-0.788,0-1.183
		c0.114-1.067-0.428-1.33-1.396-1.322c-2.891,0.041-5.781,0.017-8.673,0.017c-1.906,0-3.812,0.024-5.717-0.009
		c-0.838-0.016-1.216,0.313-1.166,1.159c0.032,0.46,0.008,0.92,0.008,1.379c0,5.783,0,11.564-0.008,17.347
		c0,0.485,0.106,1.002-0.247,1.594c-3.007-1.741-6.16-2.324-9.52-2.308c-7.835,0.033-13.716,3.458-17.856,10.003
		c-2.43,3.845-3.613,8.107-4.057,12.617c-0.706,7.227,0.542,14.011,4.575,20.123c6.776,10.267,20.271,11.228,28.221,4.229
		c0.387-0.337,0.813-0.633,1.445-1.109c0.354,1.388,0.649,2.521,0.929,3.664c0.402,1.699,0.394,1.708,2.185,1.716
		c2.957,0.008,5.913,0.008,8.87,0c2.687-0.008,2.398,0.205,2.398-2.472C988.678,480.631,988.678,458.815,988.678,437.001z
		 M970.271,489.821c-3.416,2.219-10.16,1.026-12.148-3.63c-1.954-4.574-2.135-9.175,0.074-13.692
		c2.21-4.541,7.064-6.676,12.698-4.09c0.756,0.345,0.838,0.896,0.838,1.594c-0.017,2.949-0.008,5.905-0.008,8.854
		c0,2.825-0.066,5.643,0.032,8.469C971.791,488.565,971.241,489.197,970.271,489.821z"/>
	<path fill-rule="evenodd" clip-rule="evenodd" fill="#939598" d="M1165.738,455.991c1.079-0.421,1.858-0.745,2.651-1.03
		c8.879-3.202,20.126-0.572,25.735,8.212c1.975,3.091,3.15,6.465,3.154,10.197c0.006,9.979,0.047,19.961,0.058,29.942
		c0.002,1.567-0.038,1.595-1.715,1.601c-4.398,0.015-8.799,0.013-13.197,0c-1.717-0.005-1.739-0.025-1.741-1.743
		c-0.01-7.354-0.005-14.709-0.005-22.063c0-1.839,0.012-3.679-0.009-5.517c-0.068-5.71-4.614-8.446-9.444-8.272
		c-1.492,0.053-2.974,0.405-4.403,0.954c-0.818,0.313-1.155,0.765-1.089,1.607c0.035,0.455,0.005,0.917,0.005,1.378
		c0,10.374,0,20.75,0,31.124c0,0.461-0.026,0.921,0.001,1.38c0.05,0.841-0.33,1.181-1.164,1.161
		c-1.313-0.028-2.626-0.005-3.938-0.005c-3.415,0-6.831,0.018-10.244-0.01c-1.475-0.009-1.517-0.09-1.566-1.59
		c-0.014-0.393-0.003-0.787-0.003-1.182c0-21.604,0-43.207,0-64.811c0-3.05-0.215-2.813,2.714-2.813
		c4.006-0.004,8.012-0.002,12.018,0c2.247,0,2.185-0.177,2.184,2.101c-0.002,5.844,0,11.688,0,17.532
		C1165.738,454.667,1165.738,455.188,1165.738,455.991z"/>
	<path fill-rule="evenodd" clip-rule="evenodd" fill="#939598" d="M1090.417,473.46c-1.363-8.008-5.381-14.176-12.69-17.921
		c-6.16-3.162-12.705-3.523-19.35-1.946c-8.05,1.913-13.553,6.874-16.756,14.455c-1.799,4.254-2.365,8.715-2.086,13.298
		c0.319,5.15,1.896,9.881,4.871,14.135c6.184,8.821,17.938,11.836,27.555,9.314c5.421-1.422,9.429-5.027,13.191-8.945
		c0.648-0.664,0.221-0.984-0.256-1.403c-2.422-2.111-4.87-4.205-7.235-6.383c-0.73-0.673-1.142-0.533-1.773,0.083
		c-3.425,3.334-7.549,4.254-12.164,3.449c-3.722-0.657-6.424-3.195-6.966-6.751h2.324c9.717,0,19.441,0,29.158-0.009
		c1.84,0,1.89-0.074,2.135-1.773C1090.836,479.859,1090.959,476.664,1090.417,473.46z M1073.341,473.534
		c-5.101,0.009-10.21,0.017-15.317,0c-1.668-0.008-1.774-0.147-1.175-1.65c1.249-3.17,3.778-4.724,6.981-5.363
		c3.795-0.756,7.827,0.953,9.684,4.09c0.5,0.847,0.887,1.733,0.821,2.826C1073.982,473.469,1073.661,473.534,1073.341,473.534z"/>
	<path fill-rule="evenodd" clip-rule="evenodd" fill="#939598" d="M933.057,471.407c-2.013-8.049-6.752-13.823-14.563-16.87
		c-5.676-2.219-11.507-2.309-17.388-0.871c-6.227,1.536-11.072,5.035-14.439,10.473c-3.877,6.241-4.903,13.083-3.696,20.254
		c2.621,15.516,15.745,23.039,30.061,20.862c6.563-0.994,11.294-5.19,15.573-9.89c-0.313-0.764-0.895-1.108-1.371-1.543
		c-2.111-1.874-4.28-3.68-6.35-5.602c-0.805-0.756-1.281-0.724-2.069,0.023c-3.393,3.236-7.475,4.148-12.017,3.352
		c-3.671-0.641-6.365-3.121-7.056-6.751h2.309c9.725,0,19.441,0,29.158-0.009c1.871,0,1.938-0.049,2.209-1.708
		C934.059,479.201,934.025,475.276,933.057,471.407z M908.063,473.543c-2.489-0.009-4.97,0.017-7.458-0.017
		c-1.034-0.017-1.158-0.229-0.887-1.19c0.459-1.635,1.453-2.908,2.767-3.943c3.335-2.619,8.502-2.678,11.918-0.172
		c1.717,1.265,2.694,2.957,3.105,5.322H908.063z"/>
	<path fill-rule="evenodd" clip-rule="evenodd" fill="#939598" d="M1028.068,477.543c0,8.275,0,16.554,0,24.831
		c0,0.46-0.022,0.921-0.001,1.38c0.04,0.856-0.407,1.177-1.203,1.159c-0.461-0.01-0.921,0.005-1.38,0.005
		c-4.468,0-8.934,0.007-13.401-0.003c-2.049-0.003-2.062-0.016-2.062-2.079c-0.005-16.687,0.002-33.372-0.006-50.057
		c-0.002-2.936,0.314-2.616-2.633-2.628c-3.876-0.016-7.751,0.002-11.627-0.006c-1.875-0.004-1.893-0.015-1.897-1.787
		c-0.01-4.008-0.013-8.015,0.001-12.022c0.007-1.775,0.034-1.817,1.724-1.818c15.699-0.01,31.399-0.009,47.1,0
		c1.62,0,1.647,0.033,1.652,1.648c0.017,4.139,0.018,8.276-0.001,12.415c-0.007,1.518-0.041,1.553-1.54,1.56
		c-4.335,0.019-8.671-0.002-13.007,0.013c-1.691,0.005-1.714,0.027-1.715,1.77C1028.064,460.463,1028.068,469.002,1028.068,477.543z
		"/>
	<path fill-rule="evenodd" clip-rule="evenodd" fill="#939598" d="M1142.501,462.263c-3.025,3.089-5.924,6.03-8.797,8.998
		c-0.496,0.512-0.841,0.377-1.323-0.003c-0.873-0.691-1.762-1.38-2.715-1.952c-4.156-2.495-10.764-2.177-13.988,1.556
		c-1.617,1.869-2.372,4.08-2.651,6.452c-0.529,4.5,0.465,8.546,4.169,11.473c3.799,3.005,8.977,2.862,13.382-0.216
		c0.858-0.601,1.657-1.293,2.421-2.011c0.536-0.503,0.938-0.564,1.492-0.033c2.748,2.639,5.51,5.26,8.284,7.87
		c0.55,0.518,0.534,0.969,0.07,1.52c-4.421,5.255-9.683,8.962-16.793,9.558c-3.704,0.311-7.342,0.141-10.919-0.809
		c-9.958-2.644-16.127-9.125-18.309-19.084c-1.747-7.973-0.409-15.559,4.631-22.213c4.228-5.582,10.015-8.518,16.833-9.593
		c3.399-0.536,6.798-0.514,10.187,0.104c4.543,0.829,8.283,3.188,11.692,6.166C1140.905,460.692,1141.592,461.396,1142.501,462.263z
		"/>
	<path fill-rule="evenodd" clip-rule="evenodd" fill="#01B1EA" d="M1114.006,344.551c-0.484-2.48-1.89-4.164-4.419-4.731
		c-3.507-0.788-7.056-0.698-10.554-0.131c-2.735,0.444-3.927,1.881-4.362,4.624c-0.427,2.604-0.329,5.241-0.132,7.852
		c0.206,2.662,1.472,3.918,4.091,4.616c2.069,0.542,4.173,0.427,6.267,0.435c2.251,0.008,4.444-0.189,6.439-2.283
		c0,2.62,0.066,4.723-0.017,6.817c-0.082,2.226-1.075,3.409-3.112,3.655c-2.611,0.312-5.24,0.329-7.853,0
		c-1.889-0.23-2.619-1.068-2.857-2.94c-0.223-1.708-0.223-1.667-1.849-1.667c-0.903,0-1.265,0.246-1.289,1.223
		c-0.131,3.91,1.626,6.136,5.511,6.514c2.875,0.279,5.782,0.279,8.657,0c3.49-0.345,5.101-2.013,5.602-5.511
		c0.115-0.846,0.188-1.701,0.196-2.546c0.018-4.14-0.008-8.271,0.018-12.41C1114.352,346.876,1114.228,345.702,1114.006,344.551z
		 M1111.303,350.703c-0.098,2.078-0.895,2.974-2.898,3.343c-2.801,0.501-5.617,0.46-8.41-0.033
		c-1.569-0.271-2.333-1.035-2.433-2.637c-0.105-1.963-0.113-3.942,0.009-5.897c0.115-1.774,0.92-2.571,2.719-2.817
		c1.298-0.181,2.62-0.173,3.638-0.23c1.472,0.074,2.662,0.058,3.82,0.222c2.349,0.321,3.458,1.561,3.556,3.918
		C1111.369,347.952,1111.377,349.332,1111.303,350.703z"/>
	<path fill-rule="evenodd" clip-rule="evenodd" fill="#01B1EA" d="M1121.926,368.165c4.442-8.456,8.813-16.777,13.186-25.096
		c-0.696-0.561-1.307-0.378-1.861-0.381c-4.201-0.017-8.402-0.003-12.604-0.02c-0.493-0.002-1.219,0.237-1.405-0.366
		c-0.225-0.727-0.305-1.593,0.066-2.298c0.279-0.527,0.956-0.285,1.456-0.288c3.873-0.018,7.745-0.011,11.618-0.01
		c1.641,0,3.283,0.042,4.921-0.012c0.947-0.031,1.255,0.317,1.247,1.253c-0.01,1.201-0.185,2.285-0.759,3.389
		c-3.779,7.275-7.548,14.558-11.182,21.907c-0.794,1.607-1.716,2.334-3.453,2.021
		C1122.839,368.208,1122.512,368.21,1121.926,368.165z"/>
	<path fill-rule="evenodd" clip-rule="evenodd" fill="#03B2EA" d="M1152.5,342.937c-2.077,2.194-4.001,4.224-5.873,6.201
		c-0.553-0.114-0.786-0.447-1.052-0.73c-0.968-1.028-0.98-1.042-0.074-2.022c1.735-1.876,3.574-3.666,5.211-5.625
		c1.328-1.59,2.977-0.935,4.541-0.979c0.377-0.011,0.499,0.363,0.509,0.713c0.011,0.458,0.013,0.917,0.013,1.376
		c0.001,8.063,0.001,16.127,0.001,24.19c0,0.196,0.017,0.395-0.003,0.589c-0.051,0.504,0.232,1.206-0.29,1.455
		c-0.706,0.337-1.54,0.205-2.318,0.072c-0.307-0.052-0.385-0.324-0.395-0.592c-0.018-0.524-0.022-1.048-0.022-1.573
		c-0.002-6.949,0.003-13.898-0.008-20.847C1152.737,344.526,1152.867,343.871,1152.5,342.937z"/>
	<path fill-rule="evenodd" clip-rule="evenodd" fill="#00B1EA" d="M1081.65,343.025c-1.966,2.078-3.931,4.154-5.891,6.225
		c-2.038-1.813-2.039-1.814-0.352-3.605c1.53-1.624,3.058-3.25,4.593-4.869c0.866-0.914,3.422-1.469,4.522-1.004
		c0.271,0.114,0.408,0.306,0.422,0.584c0.021,0.458,0.031,0.917,0.031,1.376c0.004,8.203,0.002,16.407,0.002,24.61
		c0,0.329-0.021,0.658-0.003,0.985c0.033,0.664-0.259,0.97-0.931,0.932c-0.393-0.023-0.787-0.015-1.181-0.004
		c-0.587,0.016-0.814-0.289-0.806-0.844c0.01-0.458-0.004-0.918-0.004-1.378c0-6.957,0-13.913,0-20.87c0-0.644,0-1.288,0-1.932
		C1081.92,343.163,1081.785,343.094,1081.65,343.025z"/>
</g>
</svg>
