<?xml version="1.0" encoding="utf-8"?>
<!-- Generator: Adobe Illustrator 16.0.0, SVG Export Plug-In . SVG Version: 6.00 Build 0)  -->
<!DOCTYPE svg PUBLIC "-//W3C//DTD SVG 1.1//EN" "http://www.w3.org/Graphics/SVG/1.1/DTD/svg11.dtd">
<svg version="1.1" id="Capa_1" xmlns="http://www.w3.org/2000/svg" xmlns:xlink="http://www.w3.org/1999/xlink" x="0px" y="0px"
	 width="1024px" height="768px" viewBox="0 0 1024 768" enable-background="new 0 0 1024 768" xml:space="preserve">
<g>
	<g>
		<g>
			<path fill="#00B1EA" d="M864,384c0,194.04-157.822,352-352,352c-194.04,0-352-157.822-352-352S317.822,32,512,32
				S864,189.822,864,384z"/>
			<path fill="#FFFFFF" d="M711.641,384c0,8.332-4.309,16.096-11.348,20.698L447.604,566.683c-4.162,2.585-8.763,3.877-13.365,3.877
				c-4.024,0-8.048-0.999-11.789-3.015c-7.901-4.309-12.788-12.504-12.788-21.561V221.869c0-8.91,4.886-17.243,12.788-21.56
				c7.911-4.308,17.536-4.024,25.153,0.862l252.689,162.131C707.332,367.756,711.503,375.667,711.641,384z"/>
		</g>
	</g>
</g>
</svg>
