<?xml version="1.0" encoding="utf-8"?>
<!-- Generator: Adobe Illustrator 16.0.0, SVG Export Plug-In . SVG Version: 6.00 Build 0)  -->
<!DOCTYPE svg PUBLIC "-//W3C//DTD SVG 1.1//EN" "http://www.w3.org/Graphics/SVG/1.1/DTD/svg11.dtd">
<svg version="1.1" id="Capa_1" xmlns="http://www.w3.org/2000/svg" xmlns:xlink="http://www.w3.org/1999/xlink" x="0px" y="0px"
	 width="1280px" height="800px" viewBox="0 0 1280 800" enable-background="new 0 0 1280 800" xml:space="preserve">
<g>
	<g>
		<path fill="#FFFFFF" d="M820.822,338.893c-10.799,4.737-22.307,7.877-34.305,9.402c12.343-7.369,21.764-18.949,26.191-32.907
			c-11.508,6.861-24.213,11.708-37.753,14.412c-10.927-11.634-26.5-18.84-43.489-18.84c-32.961,0-59.498,26.754-59.498,59.552
			c0,4.719,0.399,9.257,1.379,13.577c-49.496-2.415-93.294-26.137-122.716-62.275c-5.137,8.912-8.149,19.113-8.149,30.094
			c0,20.62,10.618,38.897,26.445,49.479c-9.565-0.182-18.949-2.958-26.899-7.333c0,0.182,0,0.417,0,0.654
			c0,28.932,20.638,52.963,47.7,58.5c-4.846,1.325-10.128,1.96-15.609,1.96c-3.812,0-7.66-0.217-11.271-1.016
			c7.714,23.577,29.604,40.911,55.631,41.474c-20.256,15.846-45.975,25.394-73.818,25.394c-4.883,0-9.566-0.219-14.249-0.817
			c26.373,17.007,57.628,26.718,91.334,26.718c109.558,0,169.456-90.754,169.456-169.418c0-2.632-0.091-5.173-0.219-7.696
			C802.799,361.418,812.728,350.945,820.822,338.893z"/>
	</g>
</g>
</svg>
